<?xml version="1.0" encoding="utf-8"?>
<!-- Generator: Adobe Illustrator 27.5.0, SVG Export Plug-In . SVG Version: 6.00 Build 0)  -->
<svg version="1.1" id="_x2018_ëîé_x5F_1" xmlns="http://www.w3.org/2000/svg" xmlns:xlink="http://www.w3.org/1999/xlink"
	 x="0px" y="0px" viewBox="0 0 2500 2000" style="enable-background:new 0 0 2500 2000;" xml:space="preserve">
<rect style="fill:#FFFFFF;" width="2500" height="2000"/>
<g>
	<g>
		<g>
			<path style="fill:#EAF4E5;" d="M1863.014,1473.206c0.29,0.203,0.589,0.415,0.888,0.608c1.1,0.743,2.23,1.477,3.379,2.191
				c1.805,1.129,3.668,2.24,5.57,3.321c0.396,0.241,0.811,0.483,1.226,0.705c38.13,21.449,77.591,25.503,116.454-28.274v-0.01
				c0.27-0.357,0.521-0.714,0.782-1.081c0,0,0-0.01,0.01-0.01c4.566-6.41,9.112-13.601,13.659-21.671
				c15.001-26.662,23.167-54.878,26.266-81.047c0.048-0.386,0.087-0.772,0.135-1.158c5.551-49.221-6.796-91.009-25.282-101.415
				c-0.608-0.348-1.255-0.666-1.95-0.946c-0.319-0.135-0.647-0.261-0.975-0.386c-22.685-8.234-80.739,11.613-124.448,58.256
				l-1.168,1.265l-0.01,0.01c-9.045,9.798-17.433,20.754-24.75,32.84c-1.043,1.728-2.056,3.475-3.05,5.242
				c-32.328,57.455-26.845,92.641-4.276,116.812C1850.532,1463.891,1856.459,1468.766,1863.014,1473.206z"/>
		</g>
		<g>
			<g>
				<path style="fill:#FFFFFF;" d="M1848.247,1491.986c5.22-6.041,10.442-12.094,15.657-18.175c2.753-3.208,5.494-6.419,8.237-9.643
					c4.092-4.82,8.171-9.643,12.22-14.512c5.311-6.364,10.577-12.764,15.765-19.232c0.225-0.27,0.439-0.543,0.664-0.814
					c33.17-41.305,63.575-84.827,84.992-133.373c7.404-16.8,13.582-34.11,18.366-51.82c-0.316-0.13-0.645-0.262-0.976-0.381
					c-16.326,60.103-48.862,113.657-86.306,163.102c-0.216,0.285-0.416,0.561-0.642,0.831c-8.234,10.868-16.718,21.541-25.31,32.033
					c-2.376,2.903-4.776,5.801-7.188,8.684c-3.362,4.073-6.772,8.123-10.192,12.157c-3.481,4.141-6.997,8.261-10.524,12.367
					c-5.154,6.041-10.344,12.061-15.546,18.079C1847.022,1491.791,1847.816,1492.491,1848.247,1491.986z"/>
			</g>
		</g>
		<g>
			<g>
				<path style="fill:#FFFFFF;" d="M2001.039,1356.882c10.349-2.044,20.447-5.061,30.207-8.948c0.051-0.384,0.09-0.771,0.141-1.156
					c-8.879,3.565-18.02,6.406-27.39,8.424c-15.227,3.258-34.555,6.886-49.455,1.023c-0.635-0.246-1.114,0.696-0.48,0.943
					C1968.476,1362.828,1986.291,1359.789,2001.039,1356.882z"/>
			</g>
		</g>
		<g>
			<g>
				<path style="fill:#FFFFFF;" d="M1877.557,1303.551c-3.258,38.062,11.786,77.449,38.668,104.418
					c0.119,0.129,0.253,0.248,0.371,0.378c0.47,0.476,1.169-0.317,0.697-0.781c-0.141-0.147-0.285-0.281-0.427-0.428
					c-26.924-27.083-41.84-66.72-38.133-104.85L1877.557,1303.551z"/>
			</g>
		</g>
		<g>
			<g>
				<path style="fill:#FFFFFF;" d="M1900.178,1429.236c-0.569-0.357-1.042,0.579-0.473,0.936c0.145,0.087,0.28,0.174,0.425,0.251
					c26.807,16.458,59,23.65,90.401,21.333v-0.01c0.27-0.357,0.521-0.714,0.782-1.081c0,0,0-0.01,0.01-0.01
					c-31.421,2.491-63.701-4.634-90.536-21.044v-0.01C1900.584,1429.487,1900.381,1429.362,1900.178,1429.236z"/>
			</g>
		</g>
	</g>
	<g>
		<g>
			<g>
				<path style="fill:#89C683;" d="M1863.362,1665.725c19.74-41.926,43.843-81.786,72.144-118.496
					c23.314-30.24,56.5-66.431,99.101-56.172c3.891,0.937,5.411-5.105,1.501-6.047c-42.193-10.161-76.675,21.885-100.7,52.286
					c-30.547,38.654-56.493,80.812-77.475,125.376C1856.236,1666.277,1861.651,1669.358,1863.362,1665.725z"/>
			</g>
		</g>
		<g>
			<g>
				<path style="fill:#B5D8A7;" d="M2062.618,1652.173c0.167,0.337,0.335,0.674,0.509,1.001
					c14.109,27.414,27.516,51.146,40.252,67.355c0.21,0.261,0.426,0.539,0.636,0.801c8.153,10.23,16.033,17.334,23.658,20.294
					c5.55,2.177,10.973,2.141,16.259-0.474c5.978-2.955,11.805-8.896,16.904-17.276c0.006-0.011,0.006-0.011,0.006-0.011
					c0.327-0.531,0.643-1.067,0.955-1.621c15.385-26.62,23.505-75.746,7.206-130.803c-0.128-0.458-0.268-0.922-0.413-1.375
					c-3.373-11.13-7.745-22.492-13.261-33.954c-0.405-0.856-0.815-1.702-1.237-2.553c-22.284-44.974-46.189-72.123-70.778-84.866
					c-0.365-0.191-0.735-0.37-1.105-0.55c-2.64-1.328-5.289-2.489-7.946-3.482c-1.013-0.384-2.039-0.746-3.054-1.075
					c-0.011-0.006-0.028-0.001-0.028-0.001l-0.011-0.006c-8.674-2.849-17.391-3.993-26.14-3.582
					c-6.612,0.297-13.241,1.486-19.848,3.501c-1.058,0.305-2.095,0.651-3.139,1.007c-2.104,0.717-4.212,1.518-6.314,2.409
					c-2.09,0.869-4.155,1.822-6.229,2.842c-8.041,3.981-14.128,7.333-18.49,10.539c-0.011-0.006-0.006,0.011-0.006,0.011
					c-0.329,0.23-0.647,0.465-0.938,0.702c-2.544,1.956-4.432,3.867-5.723,5.856l-0.006,0.011c-0.186,0.281-0.356,0.557-0.515,0.839
					c-1.111,1.976-1.675,4.046-1.68,6.315l-0.006,0.011c-0.004,0.083-0.002,0.156-0.006,0.24c0.008,1.891,0.367,3.922,1.067,6.159
					c4.425,14.265,22.281,36.669,45.59,83.734C2040.505,1607.809,2051.766,1631.063,2062.618,1652.173z"/>
			</g>
			<g>
				<g>
					<path style="fill:#FFFFFF;" d="M2161.798,1722.241c-0.371-37.181-7.188-74.257-21.512-108.709
						c-7.764-18.672-17.921-36.418-28.925-53.496c-3.573-5.54-7.234-11-10.925-16.405c-13.731-20.056-29.143-40.199-48.929-54.671
						c-10.631-7.78-22.428-12.927-34.578-13.787c-2.412-0.184-4.855-0.186-7.29,0.002c-6.196,0.446-12.45,2.088-18.627,5.117
						c-0.011-0.006-0.006,0.011-0.006,0.011c-0.234,0.111-0.462,0.212-0.685,0.329c-0.177,0.086-0.246,0.234-0.252,0.373
						c-0.022,0.345,0.356,0.714,0.762,0.5c5.478-2.779,10.887-4.467,16.183-5.219c3.393-0.493,6.745-0.609,10.041-0.37
						c34.784,2.341,64.441,41.828,82.509,68.225c3.577,5.227,7.129,10.526,10.594,15.876c10.068,15.566,19.45,31.69,26.906,48.546
						c2.442,5.518,4.685,11.11,6.729,16.776c0.252,0.67,0.493,1.335,0.728,2.01l-0.006,0.011
						c6.804,19.261,11.411,39.302,13.949,59.566c1.539,12.256,2.316,24.598,2.379,36.938c0,0,0,0-0.006,0.011L2161.798,1722.241z"/>
				</g>
			</g>
			<g>
				<g>
					<path style="fill:#FFFFFF;" d="M2104.9,1554.245c0.093-0.648-0.893-0.902-0.975-0.248c-0.26,1.912-0.549,3.822-0.869,5.714
						c-5.597,33.739-19.545,65.554-40.438,92.463c0.167,0.337,0.335,0.674,0.509,1.001c21.172-27.152,35.32-59.298,40.941-93.409
						C2104.369,1557.933,2104.649,1556.089,2104.9,1554.245z"/>
				</g>
			</g>
			<g>
				<g>
					<path style="fill:#FFFFFF;" d="M2144.578,1625.722c0.011-0.451-0.473-0.581-0.784-0.384c-0.126,0.072-0.223,0.218-0.232,0.412
						c-1,36.01-18.545,67.131-40.182,94.779c0.21,0.261,0.426,0.539,0.636,0.801c21.522-27.47,39.021-58.331,40.506-93.982
						C2144.542,1626.802,2144.557,1626.267,2144.578,1625.722z"/>
				</g>
			</g>
		</g>
	</g>
	<g>
		<g>
			<path style="fill:#B5D8A7;" d="M465.742,1312.727c-0.252-0.243-0.495-0.475-0.747-0.699
				c-6.054-5.666-12.942-11.419-20.723-17.288c-26.039-19.636-54.697-32.267-81.91-39.233c-0.291-0.087-0.582-0.155-0.873-0.223
				c-51.185-12.913-97.112-5.821-110.723,12.224c-0.475,0.631-0.931,1.319-1.348,2.057l-0.388,0.689
				c-12.059,22.643,0.64,87.003,43.88,139.886l0.825,0.999c10.371,12.554,22.488,24.438,36.41,34.935
				c68.066,51.33,109.365,39.116,139.934,5.481c0.281-0.31,0.562-0.621,0.844-0.931c0.175-0.204,0.349-0.398,0.524-0.602
				c0.689-0.776,1.368-1.562,2.047-2.358c2.066-2.445,4.084-4.986,6.063-7.606c5.171-6.859,9.721-13.844,13.388-20.984
				c14.164-27.601,15.086-57.501-12.748-91.058C476.036,1323.001,471.233,1317.908,465.742,1312.727z"/>
		</g>
		<g>
			<g>
				<path style="fill:#FFFFFF;" d="M429.081,1403.824c-21.828-22.886-44.52-44.937-68.755-65.058
					c-0.204-0.175-0.407-0.339-0.611-0.514c-18.627-15.426-38.175-29.716-58.937-42.366c-16.463-10.031-33.596-18.879-51.36-26.32
					l-0.388,0.689c60.993,25.631,112.838,67.542,159.619,113.973c0.184,0.184,0.378,0.378,0.563,0.563
					c10.448,10.39,20.645,21.004,30.637,31.704c9.1,9.76,18.084,19.636,26.99,29.58c1.368,1.513,2.726,3.036,4.084,4.55
					c0.175-0.204,0.349-0.398,0.524-0.602c-2.28-2.561-4.569-5.122-6.859-7.674c-11.477-12.787-23.09-25.496-34.974-37.962
					C429.439,1404.202,429.265,1404.008,429.081,1403.824z"/>
			</g>
		</g>
		<g>
			<g>
				<path style="fill:#FFFFFF;" d="M359.443,1338.737c-0.262,0.446,0.427,0.844,0.679,0.398c0.068-0.126,0.146-0.243,0.204-0.369
					c8.033-14.048,8.043-31.588,7.334-47.304c-0.553-12.146-2.348-24.186-5.297-35.954c-0.291-0.087-0.582-0.155-0.873-0.223
					c2.852,11.254,4.637,22.75,5.287,34.372c0.893,16.056,1.106,34.207-7.063,48.595
					C359.627,1338.417,359.54,1338.572,359.443,1338.737z"/>
			</g>
		</g>
		<g>
			<g>
				<path style="fill:#FFFFFF;" d="M409.057,1383.917c-0.136,0.107-0.272,0.203-0.407,0.31
					c-32.16,24.593-76.089,35.129-115.739,25.913l0.825,0.999c39.64,8.877,83.433-1.775,115.477-26.349
					c0.078-0.058,0.165-0.126,0.242-0.184C409.852,1384.295,409.464,1383.606,409.057,1383.917z"/>
			</g>
		</g>
		<g>
			<g>
				<path style="fill:#FFFFFF;" d="M428.77,1404.202c-0.32,0.388,0.233,0.951,0.553,0.553c0.097-0.126,0.204-0.242,0.291-0.369
					c21.111-25.709,33.79-58.393,36.128-91.66c-0.252-0.243-0.495-0.475-0.747-0.699c-2.212,33.296-14.814,66.058-35.915,91.796
					C428.974,1403.95,428.877,1404.076,428.77,1404.202z"/>
			</g>
		</g>
	</g>
	<g>
		<g>
			<path style="fill:#FFFFFF;" d="M231.245,1638.998c-7.794,3.406-16.447,4.83-23.773,9.151c-14.93,8.808-21.015,28.714-16.69,45.5
				c4.326,16.786,17.353,30.326,32.487,38.779c15.134,8.453,32.321,12.426,49.373,15.547
				c82.519,15.101,168.738,12.281,249.002-12.115l-79.459-239.462c-9.369-36.611-45.64-64.464-83.428-64.066
				c-16.454,0.173-34.747,6.932-40.866,22.208c-3.209,8.012-2.776,17.645-8.243,24.323c-8.784,10.729-25.873,6.844-38.577,1.288
				c-21.742-9.509-42.613-21.176-65.172-28.54c-22.559-7.364-47.635-10.148-69.781-1.621c-9.348,3.599-18.265,9.496-23.037,18.304
				c-7.541,13.92-3.052,31.214,3.412,45.666c5.549,12.407,12.556,24.36,22.274,33.861c26.891,26.291,69.738,29.842,97.867,54.803
				c5.285,4.689,10.24,10.8,10.099,17.864C246.563,1628.992,239.039,1635.592,231.245,1638.998z"/>
		</g>
		<g>
			<g>
				<path style="fill:#F9EADF;" d="M521.323,1734.697c-0.405,0.122-0.812,0.236-1.217,0.357c0.125,0.376,0.249,0.752,0.374,1.127
					C520.761,1735.687,521.042,1735.192,521.323,1734.697z"/>
				<path style="fill:#F9EADF;" d="M214.342,1643.634c-14.259,5.393-23.448,17.318-25.636,32.395
					c-5.115,35.245,28.614,58.633,58.21,67.336c19.288,5.672,39.585,8.533,59.503,10.966c20.836,2.545,41.816,3.931,62.806,4.117
					c41.415,0.367,82.927-3.987,123.254-13.485c9.911-2.334,19.738-4.997,29.485-7.939c0.6-0.181,1.053-0.852,0.843-1.484
					c-8.966-27.019-17.931-54.038-26.897-81.057c-14.271-43.007-28.541-86.015-42.812-129.022c-3.25-9.794-6.5-19.588-9.75-29.382
					c0.4,1.505-1.929,2.141-2.327,0.641c8.965,27.019,17.931,54.038,26.897,81.058c14.271,43.007,28.541,86.015,42.812,129.022
					c3.125,9.418,6.25,18.837,9.376,28.255c0.405-0.121,0.812-0.235,1.217-0.357c-0.281,0.495-0.562,0.99-0.843,1.484
					c-0.125-0.376-0.249-0.751-0.374-1.127c-77.025,23.029-159.137,26.53-238.288,13.307c-34.004-5.681-79.167-15.769-89.681-54.337
					c-4.298-15.767,0.696-34.88,14.814-44.134c12.601-8.26,33.028-7.387,39.699-23.421c5.877-14.124-9.327-25.863-19.548-32.651
					c-13.07-8.68-27.807-14.361-42.214-20.372c-15.058-6.283-30.37-13.068-42.665-24.053
					c-13.794-12.325-23.795-30.197-29.124-47.805c-2.718-8.982-4.057-18.894-1.008-27.972c3.106-9.248,10.588-15.861,19.11-20.145
					c17.735-8.914,38.843-9,57.91-5.088c19.768,4.055,38.2,12.536,56.32,21.158c14.418,6.861,30.025,16.515,46.4,17.278
					c5.642,0.263,11.497-0.861,15.993-4.461c5.897-4.721,7.358-12.126,8.884-19.115c1.813-8.298,5.004-15.276,11.925-20.504
					c6.157-4.651,13.686-7.261,21.254-8.466c31.981-5.088,65.288,13.817,81.829,40.681c4.172,6.775,7.267,14.078,9.308,21.764
					c-0.491-1.48,1.84-2.108,2.327-0.641c-7.942-29.901-32.759-53.965-62.513-62.06c-14.388-3.914-30.395-4.331-44.332,1.511
					c-6.11,2.561-11.757,6.368-15.806,11.674c-4.788,6.273-5.679,13.663-7.582,21.086c-2.534,9.884-8.92,15.988-19.345,16.148
					c-8.857,0.136-17.4-3.209-25.346-6.77c-18.495-8.288-36.424-17.908-55.485-24.888c-18.19-6.661-37.816-10.856-57.249-8.692
					c-15.835,1.764-34.178,7.921-42.905,22.298c-9.033,14.881-3.899,33.439,2.666,48.183c7.188,16.144,17.003,31.001,31.335,41.627
					c27.208,20.171,63.471,24.483,88.994,47.281c8.436,7.536,13.771,18.433,4.717,27.836
					C233.526,1638.555,223.362,1640.222,214.342,1643.634z"/>
				<path style="fill:#F9EADF;" d="M441.022,1496.719c0.398,1.5,2.727,0.864,2.327-0.641
					C442.862,1494.611,440.531,1495.24,441.022,1496.719z"/>
			</g>
		</g>
	</g>
	<g>
		<g>
			<path style="fill:#F9EADF;" d="M201.802,1493.234c-28.912-9.345-58.177-17.541-87.444-25.684
				c-1.499-0.417-2.138,1.911-0.642,2.327c96.553,26.865,196.822,55.651,274.697,121.862c19.94,16.954,37.938,36.129,53.092,57.489
				c0.891,1.257,2.985,0.052,2.084-1.218C386.212,1567.138,293.654,1522.923,201.802,1493.234z"/>
		</g>
	</g>
	<g>
		<g>
			<path style="fill:#F9EADF;" d="M212.656,1583.836c-1.449,0.526-0.823,2.859,0.642,2.327
				c45.983-16.693,95.226-23.096,143.959-18.958c1.547,0.131,1.539-2.283,0-2.413
				C308.335,1560.639,258.818,1567.079,212.656,1583.836z"/>
		</g>
	</g>
	<g>
		<path style="fill:#AADBA6;" d="M2116.898,667.775c30.74-21.666,73.714-20.413,103.372-43.538
			c10.718-8.357,19.015-19.453,25.914-31.163c8.036-13.64,14.428-30.325,8.487-45c-3.759-9.285-11.962-16.14-20.85-20.761
			c-21.055-10.946-46.285-10.977-69.525-6.177c-23.24,4.8-45.282,14.065-67.95,21.088c-13.245,4.103-30.661,6.057-38.193-5.585
			c-4.688-7.246-3.182-16.771-5.477-25.091c-4.376-15.863-21.8-24.622-38.132-26.63c-37.508-4.613-76.661,19.018-90.057,54.355
			L1818.798,768.37c77.039,33.201,162.405,45.627,246.094,39.83c17.293-1.198,34.816-3.228,50.799-9.939
			c15.983-6.711,30.439-18.713,36.612-34.911c6.172-16.198,2.347-36.66-11.507-47.079c-6.798-5.113-15.238-7.493-22.603-11.748
			c-7.365-4.255-14.105-11.653-13.325-20.123C2105.516,677.364,2111.123,671.845,2116.898,667.775z"/>
	</g>
	<g>
		<g>
			<path style="fill:#EAF4E5;" d="M1907.991,691.354c65.917-73.818,162.799-107.106,257.183-126.234
				c29.464-5.971,59.144-10.797,88.821-15.573c1.529-0.246,0.88-2.572-0.642-2.327c-99.58,16.023-203.014,33.652-288.207,91.336
				c-21.585,14.615-41.49,31.638-58.862,51.092C1905.253,690.802,1906.954,692.515,1907.991,691.354z"/>
		</g>
	</g>
	<g>
		<g>
			<path style="fill:#EAF4E5;" d="M2145.313,656.227c1.375,0.718,2.596-1.364,1.218-2.084
				c-43.75-22.856-92.375-35.354-141.725-36.412c-1.554-0.033-1.553,2.38,0,2.413
				C2053.728,621.193,2101.94,633.568,2145.313,656.227z"/>
		</g>
	</g>
	<g>
		<g>
			<path style="fill:#EAF4E5;" d="M1994.509,487.209c-17.724,45.377-24.764,94.459-20.513,142.989c0.134,1.535,2.549,1.549,2.413,0
				c-4.234-48.342,2.771-97.146,20.427-142.347C1997.401,486.403,1995.069,485.776,1994.509,487.209z"/>
		</g>
	</g>
	<g>
		<g>
			<path style="fill:#F7F3F0;" d="M1694.497,287.664c4.622,0,8.403-3.781,8.403-8.403V154.451c0-4.622-3.781-8.404-8.403-8.404
				h-124.809c-4.622,0-8.403,3.782-8.403,8.404V279.26c0,4.622,3.781,8.403,8.403,8.403H1694.497z"/>
		</g>
		<g>
			<g>
				<polygon style="fill:#69CC9D;" points="1661.557,167.858 1624.763,224.834 1607.451,204.299 1591.256,217.951 1627.023,260.378 
					1679.351,179.349 				"/>
			</g>
		</g>
	</g>
	<g>
		<path style="fill:#F9EADF;" d="M437.776,343.904c-7.7,0-14,6.3-14,14v629.621c0,7.7,6.3,14,14,14h629.621c7.7,0,14-6.3,14-14
			V357.903c0-7.7-6.3-14-14-14H437.776z"/>
	</g>
	<g>
		<path style="fill:#F9EADF;" d="M1912.042,1001.522c7.694,0,13.997-6.294,13.997-13.997V357.903
			c0-7.703-6.303-13.997-13.997-13.997h-629.622c-7.703,0-13.997,6.294-13.997,13.997v629.622c0,7.703,6.294,13.997,13.997,13.997
			H1912.042z"/>
	</g>
	<g>
		<path style="fill:#F9EADF;" d="M437.776,1148.697c-7.7,0-14,6.3-14,14v629.621c0,7.7,6.3,14,14,14h629.621c7.7,0,14-6.3,14-14
			v-629.621c0-7.7-6.3-14-14-14H437.776z"/>
	</g>
	<g>
		<path style="fill:#F9EADF;" d="M1912.042,1806.32c7.703,0,13.997-6.303,13.997-14.007v-629.612
			c0-7.703-6.294-14.007-13.997-14.007H1282.42c-7.703,0-13.997,6.303-13.997,14.007v629.612c0,7.703,6.294,14.007,13.997,14.007
			H1912.042z"/>
	</g>
	<g>
		<circle style="fill:#FFFFFF;" cx="1015.756" cy="690.687" r="79.155"/>
	</g>
	<g>
		<circle style="fill:#FFFFFF;" cx="739.275" cy="994.673" r="79.155"/>
	</g>
	<g>
		<circle style="fill:#F9EADF;" cx="1231.985" cy="690.687" r="79.155"/>
	</g>
	<g>
		<circle style="fill:#FFFFFF;" cx="1597.23" cy="994.673" r="79.155"/>
	</g>
	<g>
		<circle style="fill:#FFFFFF;" cx="1324.986" cy="1496.997" r="79.155"/>
	</g>
	<g>
		<circle style="fill:#F9EADF;" cx="1107.77" cy="1496.997" r="79.155"/>
	</g>
	<g>
		<circle style="fill:#F7F3F0;" cx="1597.23" cy="1121.965" r="79.155"/>
	</g>
	<g>
		<circle style="fill:#F9EADF;" cx="739.275" cy="1121.965" r="79.155"/>
	</g>
	<g>
		<g>
			<path style="fill:#D89577;" d="M1222.681,929.955c3.068-1.407,7.447-0.164,8.738-3.287c3.549-8.588,3.343-15.186,5.469-20.626
				c1.33-3.403,8.327-0.08,8.038-3.727c-0.202-2.534-0.845-5.08-2.002-7.329c-9.996-14.813-21.172-12.524-32.661-7.147
				c-0.302,0.141-0.613,0.287-0.912,0.436c-3.267,1.567-6.563,3.355-9.856,5.048c-6.933,3.736-13.734,7.714-20.392,11.917
				c-6.494,4.108-12.954,8.512-17.855,14.427c-1.586,1.905-2.968,3.923-4.172,6.038c-7.413,12.955-8.126,29.356-6.257,44.444
				c0.143,1.153,0.55,2.57,1.699,2.761c0.492,0.082,0.988-0.112,1.438-0.342c4.149-2.046,6.56-6.513,7.81-10.975
				c1.246-4.451,1.601-9.128,3.041-13.528c0.603-1.843,1.396-3.604,2.287-5.317c-0.619,10.134,0.947,20.655,3.493,30.5
				c0.317,1.223,0.949,2.695,2.209,2.74c0.547,0.018,1.057-0.268,1.513-0.566c4.172-2.785,6.13-7.938,6.845-12.897
				c0.298-2.05,0.425-4.124,0.536-6.19c1.142,5.007,2.666,9.94,4.413,14.683c0.437,1.176,1.217,2.58,2.472,2.494
				c0.541-0.036,1.021-0.364,1.444-0.714c3.872-3.183,5.305-8.507,5.524-13.517c0.207-5.014-0.571-10.05-0.146-15.044
				c0.026-0.248,0.062-0.493,0.088-0.741c1.14,7.003,3.125,13.952,5.56,20.53c0.429,1.18,1.209,2.583,2.464,2.497
				c0.549-0.039,1.021-0.364,1.444-0.714c3.872-3.183,5.313-8.511,5.524-13.517c0.172-4.138-0.318-8.277-0.249-12.414
				c-0.004-0.13-0.005-0.253-0.001-0.387C1213.61,935.448,1217.88,932.145,1222.681,929.955z"/>
		</g>
		<g>
			<polygon style="fill:#353757;" points="1592.835,997.294 1592.97,996.956 1594.698,1001.522 1756.918,1001.522 1712.14,805.444 
				1649.717,805.444 1472.1,826.565 1461.176,1001.522 1591.165,1001.522 			"/>
		</g>
		<g>
			<path style="fill:#F2735A;" d="M1607.515,811.84c68.987-42.032,67.708-213.554,11.671-305.528
				c-56.037-91.974-79.135-70.495-150.719-27.658c-61.459,36.778-108.23,83.092-63.99,164.324
				C1455.987,737.561,1538.527,853.872,1607.515,811.84z"/>
		</g>
		<g>
			<path style="fill:#F2735A;" d="M1660.165,859.707c84.889-15.84,61.684-46.335,61.684-46.335
				c-38.077-124.276-51.509-291.11-51.509-291.11s-319.361-17.723-287.619,52.375c91.933,203.019,76.802,283.369,76.802,283.369
				S1461.021,896.866,1660.165,859.707z"/>
		</g>
		<g>
			<g>
				<path style="fill:#F2735A;" d="M1519.095,725.816c14.201,23.307,44.606,30.69,67.913,16.489c0,0,94.373-50.41,131.983-80.413
					c33.682-26.87,60.249-37.763,63.937-81.216c3.218-37.912-34.578-152.887-220.438-153.754
					c-65.797-0.307-150.982,52.539-180.062,119.333c-10.894,25.023,101.884-11.81,127.518-2.439l133.056,48.64l-107.419,65.447
					C1512.277,672.103,1504.895,702.508,1519.095,725.816z"/>
			</g>
		</g>
		<g>
			<path style="fill:#282F35;" d="M1650.687,704.609c2.87-0.177,5.205-0.938,6.851-2.337c0.002-0.009,0.002-0.009,0.011-0.007
				c0.431-0.375,0.825-0.795,1.156-1.257c2.086-2.875,1.87-7.133-0.228-12.121c-3.857-9.168-14.072-20.81-28.005-30.914
				c-4.615-3.347-9.26-6.259-13.76-8.698c-16.499-8.915-31.151-11.388-35.799-4.969c-5.922,8.175,6.594,27.645,28.113,43.249
				C1624.738,698.947,1640.832,705.237,1650.687,704.609z"/>
		</g>
		<g>
			<g>
				<path style="fill:#FFFFFF;" d="M1582.885,643.086c30.218-25.189,56.163-54.414,81.877-84.049
					c0.472-0.544-0.319-1.341-0.794-0.794c-25.714,29.635-51.659,58.86-81.877,84.049
					C1581.535,642.755,1582.333,643.546,1582.885,643.086z"/>
			</g>
		</g>
		<g>
			<g>
				<path style="fill:#FFFFFF;" d="M1637.659,588.908c0.631,0.354,1.198-0.616,0.567-0.97c-9.2-5.165-18.399-10.329-27.599-15.494
					c-0.631-0.354-1.198,0.615-0.567,0.97C1619.26,578.579,1628.459,583.743,1637.659,588.908z"/>
			</g>
		</g>
		<g>
			<g>
				<path style="fill:#FFFFFF;" d="M1664.272,696.641c12.05-6.31,23.7-13.301,34.937-20.966c0.594-0.405,0.032-1.378-0.567-0.97
					c-11.237,7.665-22.887,14.656-34.937,20.966C1663.065,696.006,1663.632,696.976,1664.272,696.641z"/>
			</g>
		</g>
		<g>
			<g>
				<path style="fill:#D89577;" d="M1551.773,716.354c16.622-10.485,19.509-16.791,17.013-20.748
					c-2.496-3.958-9.431-4.068-26.053,6.417c-16.622,10.485-41.604,27.142-37.49,33.665
					C1508.778,741.292,1535.151,726.839,1551.773,716.354z"/>
			</g>
			<g>
				<path style="fill:#D89577;" d="M1568.774,726.608c18.121-11.43,21.451-18.016,18.954-21.973
					c-2.496-3.958-9.873-3.789-27.994,7.641c-18.121,11.43-45.392,29.532-41.278,36.054
					C1521.99,753.935,1550.652,738.038,1568.774,726.608z"/>
			</g>
			<g>
				<path style="fill:#D89577;" d="M1586.959,731.728c16.244-11.746,19.147-17.837,16.81-21.069
					c-2.337-3.232-9.031-2.382-25.274,9.364c-16.243,11.746-40.672,30.212-36.82,35.539
					C1544.984,760.14,1570.715,743.475,1586.959,731.728z"/>
			</g>
			<g>
				<path style="fill:#D89577;" d="M1621.422,718.343c8.894-7.6-12.716-4.445-14.506-6.54s-4.867,6.575-13.761,14.175
					c-8.894,7.6-22.186,19.548-19.235,23.001C1576.456,751.946,1612.528,725.943,1621.422,718.343z"/>
			</g>
			<g>
				<path style="fill:#D89577;" d="M1568.263,689.82c19.154-9.702,23.098-15.952,20.984-20.126
					c-2.115-4.174-9.487-4.692-28.641,5.01c-19.154,9.702-48.065,25.199-44.58,32.078
					C1519.02,712.693,1549.109,699.522,1568.263,689.82z"/>
			</g>
			<g>
				<path style="fill:#D89577;" d="M1617.177,668.403c0.315-4.668-19.103-14.493-29.922-15.224
					c-10.819-0.731-32.74-2.711-33.628-0.161c-4.726,13.576,21.667,16.337,32.486,17.067
					C1596.932,670.816,1616.861,673.071,1617.177,668.403z"/>
			</g>
			<g>
				<path style="fill:#D89577;" d="M1586.036,737.973l32.271-17.572c13.272-8.086,17.071-26.291,8.442-40.454l-3.539-5.809
					c-6.661-10.933-20.495-14.772-30.74-8.529l-45.874,27.95c-5.441,3.315-6.998,10.777-3.461,16.583l23.889,20.229
					C1570.562,736.176,1580.596,741.288,1586.036,737.973z"/>
			</g>
		</g>
		<g>
			<g>
				<path style="fill:#FFFFFF;" d="M1577.365,949.464c2.551,5.551,4.839,11.223,6.858,16.989c3.685,10.53,6.418,21.346,8.314,32.336
					c0.123,0.711,1.205,0.409,1.083-0.299c-2.196-12.728-5.535-25.216-10.124-37.294c-2.1-5.525-4.444-10.966-7.04-16.276
					c-2.047-4.186-4.078-8.161-8.301-10.45c-0.635-0.344-1.203,0.625-0.567,0.97C1572.76,938.245,1575.025,944.371,1577.365,949.464
					z"/>
			</g>
		</g>
		<g>
			<g>
				<path style="fill:#FFFFFF;" d="M1721.755,921.79c0.721-0.021,0.724-1.144,0-1.123c-29.973,0.878-57.259-16.828-68.522-44.628
					c-0.268-0.661-1.355-0.372-1.083,0.299C1663.601,904.602,1691.244,922.684,1721.755,921.79z"/>
			</g>
		</g>
		<g>
			<g>
				<path style="fill:#FFFFFF;" d="M1603.994,884.624c38.479-5.913,77.67-11.046,114.345-24.688c0.672-0.25,0.381-1.336-0.299-1.083
					c-36.092,13.425-74.61,18.568-112.479,24.401c-38.878,5.989-79.185,14.662-118.639,10.195c-0.717-0.081-0.711,1.043,0,1.123
					C1525.856,898.98,1565.629,890.519,1603.994,884.624z"/>
			</g>
		</g>
		<g>
			<g>
				<path style="fill:#FFFFFF;" d="M1741.509,1009.321c-7.352-29.222-13.779-58.664-19.276-88.292
					c-0.132-0.71-1.214-0.409-1.083,0.299c5.496,29.627,11.924,59.069,19.276,88.292
					C1740.602,1010.32,1741.685,1010.024,1741.509,1009.321z"/>
			</g>
		</g>
		<g>
			<g>
				<path style="fill:#FFFFFF;" d="M1468.364,924.986c7.913-8.819,14.322-18.691,19.133-29.523c0.291-0.655-0.677-1.227-0.97-0.567
					c-4.773,10.746-11.101,20.541-18.957,29.296C1467.089,924.728,1467.88,925.525,1468.364,924.986z"/>
			</g>
		</g>
		<g>
			<path style="fill:#F2735A;" d="M1400.932,782.482c33.741-39.614,87.026-135.135,87.026-135.135L1382.43,546.255
				c0,0-78.539,181.354-106.754,225.147c-15.839,24.584-68.916,106.583-68.916,106.583s14.939,49.62,55.794,52.19
				C1262.555,930.174,1377.339,810.182,1400.932,782.482z"/>
		</g>
		<g>
			<g>
				<path style="fill:#282F35;" d="M1348.56,362.677l-26.842-0.318c0,0,20.858,47.71,36.001,52.807
					C1372.863,420.263,1348.56,362.677,1348.56,362.677z"/>
			</g>
			<g>
				<path style="fill:#282F35;" d="M1461.027,408.172c17.781-3.176,19.23-28.565-2.03-92.368
					c-18.847-56.563-67.467-30.877-67.467-30.877C1387.127,290.779,1437.602,412.356,1461.027,408.172z"/>
			</g>
			<g>
				<path style="fill:#D89577;" d="M1464.431,493.076c35.476-14.862,37.255-36.899,29.859-46.648
					c-29.061-38.344-42.194-59.741-42.246-59.832l-9.928,13.078l-2.49,2.857l-21.577,24.842c0,0,0.877,1.87,2.238,4.903
					c1.015,2.27,2.295,5.173,3.689,8.449c1.238,2.899,2.545,6.079,3.837,9.346c0.1,0.248,0.199,0.496,0.299,0.744
					c1.64,4.143,3.219,8.412,4.493,12.347c1.371,4.176,2.403,7.988,2.849,10.946c0.073,0.485,0.125,0.952,0.167,1.39
					C1436.335,483.696,1430.454,507.32,1464.431,493.076z"/>
			</g>
			<g>
				<path style="fill:#935B4A;" d="M1435.453,474.11l0.009,0.03c10.37-7.535,24.801-35.353,15.562-60.698
					c-0.113-0.318-3.009,3.358-3.139,3.038c0,0-0.818,1.516-2.17,3.939c-3.951,7.138-12.426,22.12-17.902,29.654
					c0.1,0.248,0.199,0.496,0.299,0.744c1.64,4.143,3.219,8.412,4.493,12.347C1433.975,467.34,1435.007,471.152,1435.453,474.11z"/>
			</g>
			<g>
				<path style="fill:#D89577;" d="M1430.805,459.712c49.249-30.127,14.036-89.269,14.036-89.269
					c-53.001-94.639-121.953-28.348-100.904,22.683C1366.981,448.992,1382.369,489.341,1430.805,459.712z"/>
			</g>
			<g>
				<g>
					<path style="fill:#935B4A;" d="M1453.004,439.085c5.047-14.618,4.533-29.478,1.987-44.544c-0.093-0.552-0.932-0.318-0.84,0.231
						c2.523,14.927,3.016,29.591-1.987,44.081C1451.981,439.384,1452.822,439.613,1453.004,439.085z"/>
				</g>
			</g>
			<g>
				<g>
					<path style="fill:#774337;" d="M1399.513,443.707c10.714-2.224,16.546-12.036,17.092-22.401
						c0.043-0.819-1.23-0.781-1.273,0.032c-0.518,9.825-6.034,19.043-16.188,21.151
						C1398.343,442.655,1398.716,443.872,1399.513,443.707z"/>
				</g>
			</g>
			<g>
				<g>
					<path style="fill:#774337;" d="M1392.302,422.555c0.538,1.638,1.05,4.412,2.897,5.127c1.754,0.679,3.743-0.973,5.295-1.427
						c0.786-0.23,0.418-1.449-0.369-1.218c-1.045,0.306-2.377,1.318-3.367,1.419c-2.537,0.259-2.89-3.155-3.446-4.904
						c-1.013-3.187-1.752-6.454-2.688-9.664c-1.373-4.707-2.982-9.729-7.217-12.598c-0.678-0.46-1.273,0.667-0.601,1.122
						C1389.396,404.875,1390.01,415.578,1392.302,422.555z"/>
				</g>
			</g>
			<g>
				<path style="fill:#935B4A;" d="M1400.1,387.211c6.308-2.418,11.162-5.055,9.959-8.193c-1.203-3.138-7.705-4.801-14.013-2.383
					c-6.308,2.418-10.032,8.002-8.829,11.14C1388.419,390.913,1393.792,389.629,1400.1,387.211z"/>
			</g>
			<g>
				<path style="fill:#935B4A;" d="M1368.296,404.624c6.156-3.822,10.765-7.536,8.992-10.392c-1.773-2.856-8.81-3.054-14.966,0.768
					c-6.156,3.822-9.1,10.217-7.328,13.073C1356.767,410.929,1362.139,408.446,1368.296,404.624z"/>
			</g>
			<g>
				<path style="fill:#282F35;" d="M1406.969,405.733c1.827-0.963,2.192-3.861,0.816-6.473c-1.376-2.612-3.973-3.948-5.8-2.986
					s-2.192,3.861-0.816,6.473C1402.545,405.359,1405.142,406.696,1406.969,405.733z"/>
			</g>
			<g>
				<path style="fill:#282F35;" d="M1381.29,417.177c1.827-0.963,2.192-3.861,0.816-6.472c-1.376-2.612-3.973-3.949-5.8-2.986
					c-1.827,0.963-2.192,3.861-0.816,6.473C1376.866,416.804,1379.463,418.14,1381.29,417.177z"/>
			</g>
			<g>
				<path style="fill:#282F35;" d="M1335.694,379.122c3.509,0.405,6.617-1.842,9.426-3.961
					c14.213-10.719,28.993-20.578,44.256-29.523c3.261-1.911,7.113-3.813,10.682-2.168c1.667,0.768,3.007,2.219,4.274,3.655
					c8.362,9.482,15.724,20.011,21.872,31.279l14.439-5.491c5.233-1.354,6.974-9.026,4.692-14.582
					c-2.282-5.555-7.197-9.305-11.982-12.479c-1.347-0.893-2.725-1.785-3.813-3.037c-1.874-2.157-2.668-5.108-3.446-7.916
					c-3.877-13.992-9.017-27.64-15.319-40.675c-1.95-4.034-4.316-8.316-8.16-10.055c-2.206-0.998-4.627-1.011-6.948-0.824
					c-6.9,0.557-13.594,2.769-19.483,6.437c-3.837,2.39-7.516,5.461-11.988,6.001c-2.581,0.312-5.28-0.252-7.796,0.373
					c-5.673,1.41-8.373,8.02-11.586,13.213c-2.874,4.645-6.996,8.748-12.179,9.514c-2.354,0.348-4.804-0.011-7.144,0.411
					c-6.089,1.1-10.262,7.478-11.078,14.174c-0.816,6.696,1.101,13.607,3.537,20.032c2.135,5.631,4.688,11.095,7.624,16.318
					C1327.97,374.082,1331.238,378.608,1335.694,379.122z"/>
			</g>
			<g>
				<g>
					<path style="fill:#D89577;" d="M1447.603,384.767c3.736-9.58,0.594-19.752-7.016-22.72
						c-7.611-2.968-16.809,2.392-20.545,11.972c-3.736,9.58-0.594,19.752,7.016,22.72
						C1434.668,399.707,1443.867,394.347,1447.603,384.767z"/>
				</g>
				<g>
					<g>
						<path style="fill:#774337;" d="M1435.708,397.23c-0.641,0.369-0.028,1.341,0.614,0.972
							c5.684-3.268,10.328-9.089,12.747-15.171c2.159-5.43,0.703-10.977-1.826-15.989c-0.333-0.659-1.304-0.043-0.972,0.614
							c2.743,5.436,3.771,10.998,0.959,16.614C1444.608,389.505,1440.823,394.289,1435.708,397.23z"/>
					</g>
				</g>
			</g>
			<g>
				<g>
					<path style="fill:#774337;" d="M1428.485,378.492c-0.316,1.478-0.77,3.848,0.283,5.144c0.396,0.487,0.942,0.659,1.5,0.884
						c1.911,0.771,3.082,1.941,3.519,3.997c0.17,0.801,1.387,0.428,1.218-0.369c-0.342-1.611-1.17-3.029-2.54-3.979
						c-0.45-0.312-0.98-0.45-1.433-0.732c-1.865-1.16-1.71-2.778-1.31-4.649C1429.895,377.987,1428.657,377.69,1428.485,378.492z"/>
				</g>
			</g>
			<g>
				<g>
					<path style="fill:#774337;" d="M1419.984,376.649c0.176-1.712,0.728-3.303,1.625-4.769c0.293-0.479-0.46-0.917-0.752-0.44
						c-0.98,1.602-1.552,3.342-1.744,5.209C1419.056,377.206,1419.927,377.202,1419.984,376.649z"/>
				</g>
			</g>
		</g>
		<g>
			<g>
				<path style="fill:#FFFFFF;" d="M1441.181,732.075c0.146,0.707,1.229,0.408,1.083-0.299c-3.333-16.145-7.536-32.121-14-47.321
					c-6.261-14.722-14.539-28.415-23.302-41.761c-0.395-0.602-1.368-0.04-0.97,0.567c8.521,12.977,16.606,26.283,22.786,40.557
					C1433.475,699.289,1437.781,715.6,1441.181,732.075z"/>
			</g>
		</g>
	</g>
	<g>
		<g>
			<path style="fill:#BFB5FA;" d="M1600.334,1750.564l10.088,19.335l18.997,36.421h122.961c4.904-0.579,7.761-0.956,7.761-0.956
				c-3.861-50.939-13.119-131.33-39.5-216.094c-3.775-12.124-7.887-24.326-12.395-36.556c0,0-4.18-0.193-11.333-0.502
				c-20.474-0.888-65.274-2.78-106.01-4.073c-5.222-0.164-10.377-0.319-15.397-0.454c-3.861-0.116-7.635-0.212-11.323-0.299
				c-29.847-0.734-53.024-0.859-55.09,0.454c-0.367,0.232-0.84,1.313-1.419,3.137c-1.853,5.869-4.74,19.441-8.08,37.454
				c-12.829,69.048-32.521,203.265-27.598,217.889h116.657L1600.334,1750.564z"/>
		</g>
		<g>
			<path style="fill:#AADBA6;" d="M1696.444,1562.926c0,0,7.929-179.442,7.929-207.794c0-48.649-61.49-88.087-137.343-88.087
				c-75.852,0-142.495,40.798-121.874,84.861c51.931,110.97,38.23,194.937,38.23,194.937
				C1515.034,1546.844,1673.219,1608.215,1696.444,1562.926z"/>
		</g>
		<g>
			<path style="fill:#AADBA6;" d="M1313.295,1268.635c26.395,36.279,60.749,66.122,97.3,92.145
				c25.528,18.165,52.413,34.711,81.472,46.405l97.856-124.073c-39.231-9.948-123.483-33.778-160.762-61.886
				c-28.589-21.546-52.254-48.827-75.84-75.753c-6.95-7.938-13.968-15.904-21.973-22.741c-6.911-5.927-25.335,3.884-40.951,22.074
				c-11.401,13.281-18.243,27.283-18.406,36.187c0.491,2.115,1.025,4.226,1.594,6.331c0.008,0.002,0.008,0.002,0.005,0.01
				C1281.408,1216.494,1295.475,1244.135,1313.295,1268.635z"/>
		</g>
		<g>
			<path style="fill:#AADBA6;" d="M1535.792,1463.271c-8.781,23.705-0.701,51.253,15.33,70.799
				c16.032,19.545,38.9,32.245,62.208,42.031c28.871,12.12,60.299,20.568,91.351,16.541c31.052-4.026,61.574-22.56,73.174-51.644
				c6.701-16.8,6.711-35.52,4.767-53.502c-3.583-33.148-13.452-65.394-26.539-96.059c-13.394-31.386-30.594-61.826-55.573-85.075
				c-24.979-23.249-84.834-48.459-133.481-39.316l19.529,85.618c-0.722,18.151-2.785,36.766-11.194,52.868
				C1564.52,1426.297,1543.93,1441.304,1535.792,1463.271z"/>
		</g>
		<g>
			<g>
				<path style="fill:#FFFFFF;" d="M1721.942,1492.907c0.467,0.455,1.184-0.26,0.716-0.716
					c-38.901-37.888-91.299-60.536-145.548-62.921c-0.652-0.029-0.65,0.984,0,1.013
					C1631.092,1432.656,1683.236,1455.207,1721.942,1492.907z"/>
			</g>
		</g>
		<g>
			<g>
				<path style="fill:#FFFFFF;" d="M1660.093,1449.12c-1.854-6.904-3.233-13.887-4.124-20.98c-0.08-0.638-1.094-0.646-1.013,0
					c0.903,7.185,2.282,14.255,4.161,21.249C1659.285,1450.018,1660.262,1449.751,1660.093,1449.12z"/>
			</g>
		</g>
		<g>
			<g>
				<path style="fill:#FFFFFF;" d="M1615.421,1577.191c0.587,0.274,1.102-0.599,0.511-0.875
					c-10.539-4.92-17.064-16.822-23.167-26.205c-6.707-10.312-12.759-21.021-18.225-32.039c-0.29-0.584-1.164-0.071-0.875,0.511
					c6,12.093,12.712,23.811,20.204,35.043C1599.632,1562.265,1605.649,1572.629,1615.421,1577.191z"/>
			</g>
		</g>
		<g>
			<g>
				<path style="fill:#FFFFFF;" d="M1569.668,1685.969c5.472,9.809,10.531,19.868,15.514,29.932
					c10.432,21.073,20.076,42.526,28.967,64.293c0.243,0.595,1.224,0.335,0.977-0.269c-8.924-21.848-18.598-43.383-29.069-64.535
					c-5.099-10.299-10.261-20.607-15.899-30.624c-4.92-8.742-10.566-17.01-18.306-23.499c-0.496-0.416-1.217,0.297-0.716,0.716
					C1559.013,1668.588,1564.697,1677.058,1569.668,1685.969z"/>
			</g>
		</g>
		<g>
			<g>
				<path style="fill:#FFFFFF;" d="M1723.903,1391.038c10.055,9.162,22.056,20.435,36.839,16.805
					c0.633-0.155,0.365-1.132-0.269-0.977c-18.002,4.421-30.594-13.113-43.136-22.724c-0.802-0.615-1.69-1.245-2.642-1.871
					c-0.149,0.262-0.284,0.533-0.442,0.789C1717.706,1385.475,1720.907,1388.308,1723.903,1391.038z"/>
				<path style="fill:#FFFFFF;" d="M1692.187,1393.701c-3.564-0.252-6.831-1.42-8.287-5.072c-1.363-3.418,1.318-7.716,4.083-9.493
					c4.193-2.695,9.61-2.789,14.325-1.717c3.941,0.896,7.582,2.723,10.98,4.986c0.149-0.249,0.288-0.505,0.428-0.76
					c-8.824-5.51-22.471-10.199-29.376-0.441c-2.177,3.077-2.433,7.673,0.161,10.582c3.28,3.677,9.654,3.358,14.012,2.399
					c6.738-1.483,12.32-5.615,15.736-11.126c-0.318-0.222-0.64-0.439-0.963-0.654
					C1709.07,1389.458,1701.384,1394.351,1692.187,1393.701z"/>
				<path style="fill:#FFFFFF;" d="M1713.289,1382.405c0.323,0.215,0.644,0.432,0.963,0.654c0.159-0.256,0.293-0.527,0.442-0.789
					c-0.318-0.209-0.644-0.417-0.976-0.625C1713.577,1381.9,1713.438,1382.156,1713.289,1382.405z"/>
				<path style="fill:#FFFFFF;" d="M1520.789,1267.004c0.534-0.367,0.028-1.245-0.511-0.875
					c-17.787,12.237-22.679,37.926-9.914,55.511c15.056,20.742,45.481,27.096,69.509,27.923c15.373,0.529,30.451-1.724,45.188-6.019
					c7.731-2.253,15.435-4.751,23.455-5.752c8.971-1.12,17.998-0.171,26.806,1.697c13.864,2.941,33.307,6.744,39.569,21.255
					c3.042,7.049,2.231,14.723-1.174,20.9c0.332,0.208,0.658,0.416,0.976,0.625c2.349-4.122,3.534-8.938,3.121-13.976
					c-1.11-13.534-12.15-20.925-24.02-24.895c-14.937-4.994-31.419-8.768-47.195-6.377c-8.584,1.301-16.808,4.184-25.145,6.502
					c-8.711,2.422-17.61,4.044-26.631,4.721c-17.405,1.306-35.264-0.636-51.845-6.171c-15.616-5.213-32.018-15.052-37.232-31.668
					C1500.78,1294.578,1507.177,1276.369,1520.789,1267.004z"/>
			</g>
		</g>
		<g>
			<g>
				<path style="fill:#FFFFFF;" d="M1350.238,1270.269c-17.9-1.294-34.014-10.472-48.174-20.894
					c-0.525-0.387-1.031,0.492-0.511,0.875c14.315,10.536,30.597,19.725,48.686,21.032c6.41,0.463,13.05-0.27,19.313-2.179
					c0.021-0.362,0.052-0.722,0.077-1.083C1363.366,1269.986,1356.7,1270.736,1350.238,1270.269z"/>
				<path style="fill:#FFFFFF;" d="M1377.768,1240.785c1.875-3.428,4.55-6.683,8.097-8.484c5.938-3.016,11.047,1.361,10.944,7.448
					c-0.116,6.918-4.928,13.696-9.758,18.26c-4.66,4.404-10.32,7.616-16.398,9.67c-0.024,0.365-0.053,0.728-0.073,1.093
					c7.236-2.374,13.916-6.34,19.056-11.937c4.087-4.45,7.776-10.286,8.169-16.465c0.316-4.968-2.338-10.217-7.924-10.163
					c-6.703,0.065-11.496,6.827-14.087,12.211c-3.501,7.276-5.284,15.228-6,23.24c-0.07,0.786-0.114,1.574-0.167,2.361
					c0.344-0.108,0.684-0.225,1.025-0.341C1371.267,1258.308,1373.235,1249.073,1377.768,1240.785z"/>
				<path style="fill:#FFFFFF;" d="M1369.551,1269.103c-1.246,21.119,3.116,42.824,5.642,63.661c0.078,0.639,1.091,0.647,1.013,0
					c-1.885-15.552-4.227-31.129-5.349-46.759c-0.406-5.659-0.589-11.466-0.276-17.233
					C1370.238,1268.885,1369.896,1268.998,1369.551,1269.103z"/>
				<path style="fill:#FFFFFF;" d="M1370.653,1267.679c-0.341,0.115-0.681,0.233-1.025,0.341c-0.025,0.361-0.055,0.722-0.077,1.083
					c0.345-0.105,0.687-0.219,1.029-0.331C1370.6,1268.407,1370.63,1268.043,1370.653,1267.679z"/>
			</g>
		</g>
		<g>
			<path style="fill:#282F35;" d="M1274.63,1188.466c2.433,2.085,6.275,2.211,10.918,0.695c2.548-0.84,5.338-2.172,8.272-3.938
				c6.864-4.141,14.489-10.705,21.584-18.959c3.35-3.9,6.303-7.858,8.833-11.719c9.228-14.171,12.539-27.164,7.114-31.817
				c-6.912-5.927-25.339,3.89-40.958,22.077c-11.4,13.283-18.244,27.28-18.399,36.189c-0.058,2.587,0.453,4.75,1.593,6.333
				c0,0,0,0,0,0.01C1273.896,1187.751,1274.244,1188.137,1274.63,1188.466z"/>
		</g>
		<g>
			<path style="fill:#F4CAB5;" d="M1229.967,1134.091c14.537,13.108,30.826,29.133,50.319,30.912
				c5.656,0.516,13.832-6.78,19.069-8.977c5.237-2.197,9.729-6.849,10.411-12.487c0.849-7.021-4.168-13.42-9.728-17.791
				c-11.191-8.796-25.902-12.977-40.046-11.38l-18.263-15.978c-6.285-4.624-13.703-7.696-21.416-8.869
				c-2.019-0.307-4.314-0.41-5.854,0.931c-1.054,0.918-1.52,2.329-1.834,3.691c-1.714,7.425-0.208,15.356,3.167,22.189
				C1219.167,1123.163,1224.307,1128.988,1229.967,1134.091z"/>
		</g>
		<g>
			<path style="fill:#F4CAB5;" d="M1225.27,1123.595c3.683-1.612,5.124-6.448-0.105-18.394
				c-5.229-11.946-13.813-29.93-19.883-27.273c-5.215,2.282,1.318,21.164,6.546,33.11
				C1217.057,1122.984,1221.588,1125.207,1225.27,1123.595z"/>
		</g>
		<g>
			<path style="fill:#F4CAB5;" d="M1228.93,1100.992c1.66-12.934,3.548-32.772-3.024-33.616
				c-5.646-0.725-9.755,18.828-11.415,31.762c-1.66,12.934,1.082,17.17,5.069,17.682
				C1223.547,1117.332,1227.27,1113.926,1228.93,1100.992z"/>
		</g>
		<g>
			<path style="fill:#F4CAB5;" d="M1244.169,1109.816c1.842-12.91,4.009-32.719-2.55-33.655
				c-5.636-0.804-10.02,18.689-11.862,31.598c-1.842,12.91,0.84,17.184,4.819,17.752
				C1238.556,1126.078,1242.327,1122.725,1244.169,1109.816z"/>
		</g>
		<g>
			<path style="fill:#F4CAB5;" d="M1260.942,1132.401c3.361-0.672,5.442-4.438,3.262-15.341
				c-2.18-10.903-6.056-27.446-11.596-26.339c-4.76,0.952-2.756,17.869-0.576,28.772
				C1254.211,1130.397,1257.58,1133.073,1260.942,1132.401z"/>
		</g>
		<g>
			<g>
				<path style="fill:#EF9778;" d="M1264.976,1129.413c0.889-5.485,0.589-10.863-0.936-16.205c-0.173-0.605-1.119-0.348-0.945,0.26
					c1.474,5.166,1.796,10.381,0.936,15.684C1263.931,1129.769,1264.875,1130.035,1264.976,1129.413z"/>
			</g>
		</g>
		<g>
			<g>
				<path style="fill:#EF9778;" d="M1270.559,1130.068c0.218,0.586,1.165,0.333,0.945-0.26c-1.087-2.931-3.145-5.306-5.921-6.754
					c-0.558-0.292-1.055,0.554-0.495,0.846C1267.631,1125.227,1269.561,1127.375,1270.559,1130.068z"/>
			</g>
		</g>
		<g>
			<g>
				<path style="fill:#EF9778;" d="M1268.178,1124.652c5.146-3.824,11.712-4.384,17.407-1.389c0.558,0.293,1.054-0.552,0.495-0.846
					c-5.969-3.14-12.972-2.642-18.396,1.389C1267.182,1124.178,1267.671,1125.029,1268.178,1124.652z"/>
			</g>
		</g>
		<g>
			<g>
				<path style="fill:#EF9778;" d="M1223.337,1116.984c-2.89-9.901-5.295-19.92-7.212-30.054c-0.117-0.619-1.062-0.357-0.945,0.261
					c1.917,10.134,4.322,20.153,7.212,30.054C1222.568,1117.849,1223.514,1117.592,1223.337,1116.984z"/>
			</g>
		</g>
		<g>
			<g>
				<path style="fill:#EF9778;" d="M1552.733,1450.747c0.701,0.322,1.314-0.718,0.609-1.042c-2.675-1.229-5.433-2.203-8.293-2.906
					c-0.754-0.185-1.076,0.978-0.321,1.164C1547.486,1448.641,1550.151,1449.56,1552.733,1450.747z"/>
			</g>
		</g>
		<g>
			<path style="fill:#F4CAB5;" d="M1315.405,1166.264c3.35-3.9,6.303-7.858,8.833-11.719l-15.348-17.684l-28.602,28.139
				c0,0,6.352,5.512,13.533,20.223C1300.684,1181.081,1308.309,1174.517,1315.405,1166.264z"/>
		</g>
		<g>
			<path style="fill:#282F35;" d="M1475.724,1225.202c0,0,8.128,21.773,56.606,32.029c48.478,10.257,48.348-44.854,48.348-44.854
				l15.911-117.025c0,0-40.584-12.832-77.199,13.081C1461.023,1149.738,1510.059,1210.378,1475.724,1225.202z"/>
		</g>
		<g>
			<path style="fill:#F4CAB5;" d="M1602.185,1263.908c-8.353-43.76-8.361-66.704-8.361-66.796l-15.718,6.557l-3.235,1.351
				l-28.115,11.734c0,0-0.043,1.91-0.162,4.986c-0.179,4.484-0.511,11.451-1.124,18.602c-0.783,9.195-2.018,18.693-3.917,23.567
				c-2.776,7.094-19.231,24.888,14.818,27.038C1591.911,1293.188,1604.314,1275.034,1602.185,1263.908z"/>
		</g>
		<g>
			<path style="fill:#EF9778;" d="M1576.752,1206.329c0,0-1.252,0.996-3.278,2.58c-6.624,5.185-21.567,16.671-28.276,20.128
				c-0.179,5.398-0.511,13.785-1.124,22.393c7.552-3.695,31.273-17.395,32.636-44.147
				C1576.727,1206.968,1576.744,1206.653,1576.752,1206.329z"/>
		</g>
		<g>
			<path style="fill:#F4CAB5;" d="M1604.913,1199.115c45.453-89.568-42.988-86.855-69.481-65.906
				c-26.493,20.949-54.735,90.943-11.028,101.641C1568.11,1245.548,1604.913,1199.115,1604.913,1199.115z"/>
		</g>
		<g>
			<g>
				<path style="fill:#EF9778;" d="M1552.051,1235.647c14.343-3.738,27.317-10.9,38.134-21.033c0.568-0.532-0.286-1.384-0.853-0.853
					c-10.674,10-23.449,17.034-37.602,20.723C1550.979,1234.679,1551.298,1235.843,1552.051,1235.647z"/>
			</g>
		</g>
		<g>
			<g>
				<path style="fill:#BA664D;" d="M1541.358,1196.859c0.672-0.389,0.065-1.432-0.609-1.042c-7.173,4.146-15.822,4.69-22.142-1.322
					c-0.563-0.535-1.417,0.317-0.853,0.853C1524.459,1201.727,1533.689,1201.291,1541.358,1196.859z"/>
			</g>
		</g>
		<g>
			<g>
				<path style="fill:#BA664D;" d="M1528.747,1179.961c-2.62,3.812-1.338,4.24,1.973,6.727c0.621,0.466,1.223-0.581,0.609-1.042
					c-0.888-0.667-2.676-2.457-2.602-3.587c0.068-1.044,2.228-2.975,2.963-3.862c1.427-1.723,2.967-3.351,4.396-5.073
					c2.125-2.56,4.493-5.374,5.217-8.702c1.033-4.757-2.352-8.544-6.964-9.04c-0.771-0.083-0.765,1.124,0,1.207
					c9.375,1.008,5.305,10.053,1.884,14.43C1533.841,1174.066,1530.941,1176.767,1528.747,1179.961z"/>
			</g>
		</g>
		<g>
			<path style="fill:#EF9778;" d="M1564.988,1167.538c1.219-1.729,0.208-5.431-2.776-7.534c-2.983-2.103-6.809-1.812-8.029-0.082
				c-1.219,1.729,0.937,3.807,3.92,5.91C1561.087,1167.935,1563.769,1169.267,1564.988,1167.538z"/>
		</g>
		<g>
			<path style="fill:#BA664D;" d="M1541.874,1153.022c0.926-1.903-0.666-5.394-3.948-6.991c-3.282-1.598-7.012-0.696-7.938,1.207
				c-0.926,1.902,1.535,3.608,4.817,5.205C1538.088,1154.04,1540.948,1154.925,1541.874,1153.022z"/>
		</g>
		<g>
			<path style="fill:#282F35;" d="M1552.84,1178.4c1.173-2.172,0.892-4.599-0.628-5.419c-1.52-0.82-3.702,0.276-4.875,2.448
				c-1.173,2.172-0.892,4.599,0.628,5.419C1549.485,1181.668,1551.667,1180.572,1552.84,1178.4z"/>
		</g>
		<g>
			<path style="fill:#282F35;" d="M1530.206,1165.935c1.173-2.172,0.892-4.598-0.628-5.419c-1.519-0.82-3.702,0.276-4.875,2.448
				c-1.173,2.172-0.892,4.599,0.628,5.419C1526.85,1169.203,1529.033,1168.107,1530.206,1165.935z"/>
		</g>
		<g>
			<g>
				<path style="fill:#FFFFFF;" d="M1544.511,1089.713c-0.239-0.232-0.479-0.464-0.718-0.697c-0.307-0.297-0.776,0.171-0.469,0.469
					c0.239,0.232,0.479,0.464,0.718,0.697C1544.349,1090.479,1544.818,1090.01,1544.511,1089.713z"/>
			</g>
		</g>
		<g style="opacity:0.3;">
			<path style="fill:#FFFFFF;" d="M1552.924,1196.044c8.398-0.597,14.722-7.888,14.126-16.286
				c-0.596-8.398-7.888-14.723-16.286-14.126c-8.398,0.597-14.722,7.888-14.126,16.286
				C1537.234,1190.316,1544.526,1196.641,1552.924,1196.044z"/>
		</g>
		<g style="opacity:0.3;">
			<path style="fill:#FFFFFF;" d="M1519.479,1179.088c8.398-0.597,14.723-7.888,14.126-16.286s-7.888-14.723-16.286-14.126
				c-8.398,0.597-14.723,7.888-14.126,16.286C1503.79,1173.36,1511.081,1179.685,1519.479,1179.088z"/>
		</g>
		<g>
			<g>
				<path style="fill:#FFFFFF;" d="M1541.925,1172.706c0.409,0.75,1.555,0.081,1.145-0.669c-2.135-3.916-6.278-6.499-10.794-5.744
					c-0.84,0.14-0.484,1.419,0.352,1.279C1536.556,1166.915,1540.1,1169.36,1541.925,1172.706z"/>
			</g>
		</g>
		<g>
			<g>
				<path style="fill:#FFFFFF;" d="M1562.258,1193.488c0.662-0.54-0.282-1.474-0.938-0.938c-3.101,2.531-7.018,3.425-10.911,2.535
					c-0.831-0.19-1.186,1.089-0.353,1.279C1554.444,1197.367,1558.775,1196.331,1562.258,1193.488z"/>
			</g>
		</g>
		<g>
			<g>
				<path style="fill:#FFFFFF;" d="M1527.083,1178.228c0.79-0.301,0.447-1.584-0.353-1.279c-7.394,2.818-15.599,2.385-20.901-4.083
					c-0.542-0.661-1.475,0.282-0.938,0.938C1510.465,1180.603,1519.27,1181.206,1527.083,1178.228z"/>
			</g>
		</g>
		<g>
			<path style="fill:#282F35;" d="M1615.257,1209.033c27.704-5.969,10.709-60.484,10.143-61.187
				c-0.566-0.704-11.89-19.703-11.89-19.703l-30.986-7.43l-1.877,31.546c0,0,11.813,11.07-1.964,37.409
				C1578.682,1189.667,1587.553,1215.002,1615.257,1209.033z"/>
		</g>
		<g>
			<g>
				<path style="fill:#FFFFFF;" d="M1598.591,1181.391c0.807,0.285,1.153-0.996,0.353-1.279
					c-10.564-3.734-21.585-2.431-32.451-0.919c-0.842,0.117-0.484,1.396,0.353,1.279
					C1577.475,1178.994,1588.25,1177.736,1598.591,1181.391z"/>
			</g>
		</g>
		<g>
			<path style="fill:#282F35;" d="M1621.868,1293.67c37.601-0.441,49.316-13.977,49.316-13.977s28.224-124.66-38.826-168.512
				c-62.881-41.125-86.731,5.16-86.731,5.16s-10.196,48.132,29.526,63.703c45.507,17.839-10.861,93.674-10.861,93.674
				S1585.087,1294.102,1621.868,1293.67z"/>
		</g>
		<g>
			<g>
				<path style="fill:#FFFFFF;" d="M1557.147,1116.401c-6.422,11.838-3.363,26.061,4.549,36.417
					c8.867,11.607,22.293,18.467,35.101,24.807c14.191,7.025,29.185,13.853,39.964,25.85c11.216,12.483,16.599,29.907,14.456,46.538
					c-2.297,17.83-13.161,33.703-28.506,42.893c-0.366,0.219-0.033,0.793,0.335,0.573c24.612-14.739,35.585-45.168,25.34-72.105
					c-11.554-30.381-43.46-37.974-68.487-53.627c-16.681-10.433-33.239-30.622-22.178-51.01
					C1557.923,1116.36,1557.351,1116.025,1557.147,1116.401z"/>
			</g>
		</g>
		<g>
			<g>
				<path style="fill:#282F35;" d="M1550.835,1260.617c-0.416,0.095-0.24,0.735,0.176,0.64
					c14.191-3.255,25.525-14.308,33.177-26.234c7.871-12.266,13.053-27.396,10.495-42.054c-0.073-0.42-0.712-0.242-0.639,0.176
					c2.526,14.477-2.662,29.442-10.428,41.543C1576.055,1246.471,1564.857,1257.401,1550.835,1260.617z"/>
			</g>
		</g>
		<g>
			<g>
				<g>
					
						<ellipse transform="matrix(0.9092 -0.4163 0.4163 0.9092 -352.5906 770.2312)" style="fill:#F4CAB5;" cx="1589.817" cy="1193.593" rx="16.608" ry="13.195"/>
				</g>
				<g>
					<g>
						<path style="fill:#BA664D;" d="M1598.065,1205.135c4.373-2.283,6.646-6.528,8.096-11.068c0.237-0.741-0.928-1.059-1.163-0.321
							c-1.354,4.24-3.419,8.222-7.541,10.347c-5.179,2.671-11.84,3.31-17.447,2.019c-0.756-0.174-1.078,0.989-0.321,1.163
							C1585.585,1208.633,1592.627,1207.973,1598.065,1205.135z"/>
					</g>
				</g>
			</g>
			<g>
				<g>
					<path style="fill:#BA664D;" d="M1587.566,1190.703c0.642-0.43,0.039-1.476-0.609-1.042c-1.115,0.747-2.83,1.946-3.037,3.403
						c-0.102,0.715,0.287,1.302,0.545,1.931c0.628,1.535,0.553,2.94-0.35,4.378c-0.414,0.66,0.63,1.266,1.042,0.609
						c0.699-1.113,1.066-2.327,0.938-3.652c-0.063-0.649-0.396-1.191-0.503-1.804
						C1585.25,1192.564,1586.098,1191.687,1587.566,1190.703z"/>
				</g>
			</g>
			<g>
				<g>
					<path style="fill:#BA664D;" d="M1582.802,1183.402c1.147-0.966,2.459-1.623,3.91-1.995c0.752-0.193,0.433-1.357-0.321-1.164
						c-1.655,0.425-3.137,1.206-4.442,2.305C1581.354,1183.049,1582.212,1183.899,1582.802,1183.402z"/>
				</g>
			</g>
		</g>
		<g>
			<g>
				<path style="fill:#A0A6A8;" d="M1516.147,1378.375l-27.146-0.036l-25.951,10.368l-3.761,27.821l75.89-3.975
					C1539.501,1377.799,1516.147,1378.375,1516.147,1378.375z"/>
			</g>
			<g>
				<path style="fill:#282F35;" d="M1434.835,1587.004c0.314,3.755,3.934,6.518,8.084,6.171l125.651-10.517
					c3.878-0.325,6.893-3.266,6.966-6.79c0.27-13.13,0.379-45.707-2.906-84.952c-3.053-36.472-8.838-66.781-11.485-84.026
					c-0.547-3.564-4.064-6.074-8.033-5.742l-131.056,10.97c-4.459,0.373-7.643,4.156-6.846,8.13
					c3.095,15.425,10.023,52.047,12.597,82.79L1434.835,1587.004z"/>
			</g>
			<g>
				<path style="fill:#C7E2F7;" d="M1515.878,1378.358c-4.652-0.3-70.514-4.277-96.564,9.269
					c-27.011,14.046-24.85,44.12-24.85,44.12c27.011,4.684,91.836-10.626,91.836-10.626
					C1479.435,1377.424,1512.561,1378.175,1515.878,1378.358z"/>
				<path style="fill:#C7E2F7;" d="M1515.878,1378.358c0.172,0.011,0.27,0.018,0.27,0.018S1516.052,1378.367,1515.878,1378.358z"/>
			</g>
		</g>
		<g>
			<g>
				<path style="fill:#F4CAB5;" d="M1508.536,1475.108c17.722-0.275,22.904-3.777,22.839-7.997
					c-0.066-4.219-5.354-7.559-23.076-7.283c-17.722,0.275-44.779,1.381-44.671,8.336
					C1463.721,1474.138,1490.814,1475.383,1508.536,1475.108z"/>
			</g>
			<g>
				<path style="fill:#F4CAB5;" d="M1516.818,1490.982c19.32-0.3,24.974-3.81,24.909-8.029c-0.066-4.219-5.826-7.551-25.146-7.251
					c-19.32,0.3-48.818,1.444-48.71,8.399C1467.964,1490.075,1497.498,1491.282,1516.818,1490.982z"/>
			</g>
			<g>
				<path style="fill:#F4CAB5;" d="M1528.421,1503.459c18.022-1.425,23.117-4.753,22.833-8.339s-5.837-6.073-23.86-4.648
					c-18.022,1.425-45.502,4.183-45.034,10.094C1482.761,1505.644,1510.399,1504.883,1528.421,1503.459z"/>
			</g>
			<g>
				<path style="fill:#F4CAB5;" d="M1561.245,1509.321c10.416-1.68-7.707-9.39-8.103-11.844c-0.396-2.454-6.834,2.78-17.25,4.46
					c-10.416,1.68-26.26,4.645-25.608,8.689C1510.845,1514.101,1550.829,1511.001,1561.245,1509.321z"/>
			</g>
			<g>
				<path style="fill:#F4CAB5;" d="M1559.293,1456.755c0.33-4.207-5.105-8.065-24.41-9.581c-19.305-1.516-48.843-3.147-49.387,3.787
					c-0.468,5.957,28.886,9.932,48.191,11.448S1558.962,1460.962,1559.293,1456.755z"/>
			</g>
			<g>
				<path style="fill:#F4CAB5;" d="M1581.409,1468.867c2.433-3.448-7.912-20.126-15.901-25.766
					c-7.989-5.639-23.944-17.451-25.824-15.904c-10.011,8.238,9.022,22.749,17.011,28.389
					C1564.685,1461.225,1578.976,1472.314,1581.409,1468.867z"/>
			</g>
			<g>
				<path style="fill:#F4CAB5;" d="M1524.78,1507.835l33.1,1.609c14.017,0,25.485-12.238,25.485-27.195v-6.135
					c0-11.547-8.853-20.994-19.673-20.994h-48.446c-5.746,0-10.447,5.017-10.447,11.148l8.907,26.79
					C1513.706,1499.19,1519.034,1507.835,1524.78,1507.835z"/>
			</g>
		</g>
	</g>
	<g>
		<g>
			<path style="fill:#353757;" d="M815.501,687.049l-190.86,3.638c0,0-111.668,127.466-89.922,310.837h268.676
				c0,0-12.701-199.5-6.443-238.393C803.211,724.237,815.501,687.049,815.501,687.049z"/>
		</g>
		<g>
			<path style="fill:#F4CAB5;" d="M838.115,453.694c-16.946-4.868-1.046,126.955-1.046,126.955s61.113,159.973,141.62,108.335
				c54.56-34.995,59.968-204.909,59.968-204.909l-53.794-25.011c-4.394,58.413-53.542,131.823-53.542,131.823
				S897.963,470.888,838.115,453.694z"/>
		</g>
		<g>
			<path style="fill:#F2735A;" d="M821.717,332.392c-2.896,1.014-3.378,4.846-3.388,7.916c-0.019,6.574-0.145,13.157-0.386,19.731
				c-1.023,28.148-4.064,56.239-9.103,83.962c-0.386,2.143-0.927,4.508-2.703,5.772c-1.332,0.956-3.079,1.062-4.72,1.129
				c-49.578,1.892-99.514-6.023-146.09-23.1c-0.347-0.125-0.705-0.251-1.062-0.386c-2.317-0.849-4.624-1.737-6.921-2.635
				c-0.367-0.145-0.724-0.28-1.081-0.434c-2.606-1.023-5.193-2.075-7.771-3.166c-1.158-0.492-2.346-1.004-3.234-1.892
				c-1.12-1.11-1.651-2.664-2.085-4.18c-7.51-26.044,3.485-56.335,25.957-71.5c11.593-7.829,25.455-11.729,37.135-19.403
				c8.765-5.773,16.439-14.991,18.138-24.924c0.56-3.301,0.463-6.68-0.473-10.039l26.005,10.31l11.69,4.633l21.845,8.659
				C789.553,319.361,805.635,325.877,821.717,332.392z"/>
		</g>
		<g>
			<path style="fill:#F9B458;" d="M630.324,493.696l-52.448,228.666c0,0-12.097,24.968,28.348,36.198
				c40.445,11.23,163.472,0.165,190.445,18.085c0,0,72.439-130.737,73.838-220.189c1.4-89.452-5.132-101.807-60.187-120.969
				C755.266,416.326,630.324,493.696,630.324,493.696z"/>
		</g>
		<g>
			<path style="fill:#F4CAB5;" d="M1114.333,439.571c-9.489-2.352-19.548-2.364-29.043-0.035l-28.813,9.706
				c-15.597-8.648-34.628-10.883-51.806-6.086c-8.534,2.383-17.417,7.375-19.809,15.907c-1.921,6.852,1.039,14.394,6.043,19.453
				c5.003,5.06,11.756,8.002,18.548,10.124c23.409,7.313,49.16,6.034,72.281-2.143c9.001-3.183,17.749-7.451,24.939-13.733
				c7.189-6.282,12.746-14.736,14.332-24.15c0.291-1.726,0.43-3.583-0.348-5.152
				C1119.521,441.171,1116.816,440.187,1114.333,439.571z"/>
		</g>
		<g>
			<path style="fill:#F4CAB5;" d="M1101.179,455.38c-11.793,11.308-12.451,17.596-8.965,21.232
				c3.486,3.636,9.796,3.242,21.589-8.066c11.793-11.308,28.43-30.014,23.493-35.162
				C1131.551,427.392,1112.973,444.072,1101.179,455.38z"/>
		</g>
		<g>
			<path style="fill:#F4CAB5;" d="M1098.847,448.7c-4.298,15.763-1.628,21.494,3.232,22.819c4.86,1.325,10.069-2.258,14.366-18.021
				c4.298-15.763,8.944-40.362,2.063-42.238C1110.498,409.076,1103.144,432.936,1098.847,448.7z"/>
		</g>
		<g>
			<path style="fill:#F4CAB5;" d="M1076.973,451.583c-4.075,15.822-1.325,21.515,3.553,22.771
				c4.878,1.256,10.036-2.399,14.111-18.222c4.075-15.823,8.374-40.484,1.467-42.263
				C1088.064,411.799,1081.048,435.76,1076.973,451.583z"/>
		</g>
		<g>
			<path style="fill:#F4CAB5;" d="M1050.31,450.333c-7.765,11.567-7.168,16.924-3.602,19.318c3.566,2.394,8.75,0.917,16.515-10.65
				c7.765-11.567,18.216-30.178,13.167-33.567C1070.512,421.488,1058.074,438.766,1050.31,450.333z"/>
		</g>
		<g>
			<g>
				<path style="fill:#EF9778;" d="M1052.408,445.906c-4.333,5.415-7.322,11.511-8.904,18.264c-0.177,0.755,0.986,1.078,1.163,0.321
					c1.533-6.546,4.392-12.481,8.594-17.732C1053.742,446.159,1052.894,445.3,1052.408,445.906z"/>
			</g>
		</g>
		<g>
			<g>
				<path style="fill:#EF9778;" d="M1035.79,461.524c-0.531,0.566,0.32,1.421,0.853,0.853c2.476-2.638,5.661-4.228,9.269-4.561
					c0.767-0.071,0.774-1.278,0-1.207C1041.992,456.971,1038.489,458.649,1035.79,461.524z"/>
			</g>
		</g>
		<g>
			<g>
				<path style="fill:#EF9778;" d="M1022.506,446.019c-0.766,0.073-0.774,1.281,0,1.207c7.957-0.762,15.459,3.021,19.524,9.915
					c0.394,0.669,1.438,0.062,1.042-0.609C1038.804,449.294,1030.88,445.216,1022.506,446.019z"/>
			</g>
		</g>
		<g>
			<g>
				<path style="fill:#EF9778;" d="M1097.916,436.609c-0.873,6.932-7.499,14.023-11.625,19.347c-0.47,0.606,0.378,1.466,0.853,0.853
					c4.474-5.771,11.033-12.689,11.979-20.2C1099.219,435.841,1098.012,435.848,1097.916,436.609z"/>
			</g>
		</g>
		<g>
			<g>
				<path style="fill:#EF9778;" d="M1080.316,438.579c-0.918,4.917-5.026,7.777-8.943,10.35c-0.646,0.425-0.042,1.47,0.609,1.042
					c4.17-2.74,8.522-5.848,9.497-11.071C1081.621,438.141,1080.458,437.816,1080.316,438.579z"/>
			</g>
		</g>
		<g>
			<g>
				<path style="fill:#EF9778;" d="M1120.261,438.906c-3.273,7.879-8.722,14.395-15.875,19.04c-0.649,0.421-0.045,1.466,0.609,1.042
					c7.44-4.831,13.028-11.573,16.43-19.761C1121.722,438.51,1120.555,438.198,1120.261,438.906z"/>
			</g>
		</g>
		<g>
			<g>
				<path style="fill:#EF9778;" d="M939.902,578.141c-18.715,20.537-33.127,46.373-30.271,75.02c0.076,0.765,1.284,0.773,1.207,0
					c-2.826-28.346,11.403-53.849,29.918-74.166C941.278,578.422,940.427,577.566,939.902,578.141z"/>
			</g>
		</g>
		<g>
			<g>
				<path style="fill:#EF9778;" d="M1000.951,480.092c-0.671-0.395-1.279,0.648-0.609,1.042
					c16.141,9.508,34.709,13.604,53.352,11.738c0.766-0.077,0.774-1.284,0-1.207
					C1035.235,493.513,1016.938,489.509,1000.951,480.092z"/>
			</g>
		</g>
		<g>
			<path style="fill:#F9B458;" d="M594.872,490.013c-7.559,7.362-9.046,18.935-3.621,27.985
				c13.872,23.145,74.755,70.027,102.329,67.194l31.805-74.369l38.466-80.982c0,0-66.596-15.576-114.372,15.321
				C628.066,459.01,607.426,477.786,594.872,490.013z"/>
		</g>
		<g>
			<g>
				<path style="fill:#CC4C3B;" d="M719.337,305.354v0.01c-0.039,9.981-1.728,20.465-7.915,28.525
					c-7.423,9.692-20.609,13.022-30.716,19.152c-12.896,7.838-22.202,18.794-27.193,33.081c-4.325,12.404-5.599,25.61-6.168,38.661
					c-0.367-0.145-0.724-0.28-1.081-0.434c1.081-23.814,5.068-49.53,24.471-65.612c5.068-4.209,10.734-7.607,16.565-10.638
					c6.12-3.185,12.839-5.637,18.312-9.933c10.493-8.244,12.819-22.173,12.607-34.819c0-0.386-0.01-0.763-0.029-1.139
					c0-0.174,0-0.348-0.01-0.521c0-0.068,0.01-0.135,0.029-0.193c0.154-0.512,1.052-0.454,1.071,0.193
					c0.019,0.415,0.029,0.83,0.029,1.245c0.01,0.029,0.01,0.058,0,0.087C719.327,303.79,719.337,304.572,719.337,305.354z"/>
			</g>
		</g>
		<g>
			<g>
				<path style="fill:#CC4C3B;" d="M722.686,337.914c-3.977,11.034-12.771,19.007-21.941,25.832
					c-11.535,8.582-23.698,16.111-32.193,28.033c-7.568,10.628-12.076,23.1-13.225,36.025c-0.347-0.125-0.705-0.251-1.062-0.386
					c0.975-10.667,4.209-21.024,9.595-30.359c6.139-10.628,14.827-18.746,24.683-25.899c10.628-7.723,22.511-14.924,29.587-26.363
					c7.423-11.989,7.578-27.106,1.207-39.433c-0.357-0.685-0.724-1.361-1.12-2.017c-0.203-0.357-0.415-0.705-0.637-1.052
					c-0.126-0.193-0.106-0.376-0.019-0.521c0.125-0.212,0.396-0.338,0.647-0.28c0.116,0.029,0.232,0.106,0.319,0.241
					c0.241,0.376,0.463,0.753,0.695,1.139c0.029,0.048,0.058,0.097,0.087,0.145C725.428,313.521,726.837,326.398,722.686,337.914z"
					/>
			</g>
		</g>
		<g>
			<path style="fill:#F2735A;" d="M778.23,277.061l-26.604,27.125l-1.052,1.072c-4.122,2.452-9.296,3.446-14.692,3.079
				c-3.774-0.251-7.655-1.178-11.362-2.732c-0.734-0.309-1.458-0.628-2.162-0.994c-1.042-0.502-2.056-1.062-3.05-1.68
				c-0.029-0.019-0.058-0.039-0.087-0.058c-0.348-0.212-0.695-0.434-1.033-0.666c-0.212-0.145-0.425-0.28-0.628-0.434
				c-0.27-0.183-0.531-0.376-0.792-0.569c-0.82-0.608-1.602-1.255-2.365-1.921c-8.9-7.915-13.591-19.905-11.217-29.394
				c0.106-0.415,0.212-0.82,0.338-1.216c0.126-0.405,0.27-0.811,0.425-1.207c1.612-4.315,4.489-7.974,7.742-11.188
				c0.019-0.019,0.029-0.029,0.048-0.048c0.734-0.724,1.487-1.419,2.259-2.095c0.029-0.029,0.058-0.058,0.087-0.077
				c0.463-0.405,0.927-0.801,1.409-1.197c0.261-0.203,0.502-0.405,0.772-0.608l0.01-0.01c0.599-0.463,1.216-0.927,1.853-1.371
				c5-3.514,10.782-6.13,17.318-7.153c9.518-1.487,20.754,0.724,29.683,7.153c6.429,4.624,11.313,11.564,12.887,18.409
				c0.183,0.82,0.328,1.651,0.405,2.471c0.058,0.483,0.097,0.965,0.106,1.448C778.587,274.522,778.481,275.816,778.23,277.061z"/>
		</g>
		<g>
			<path style="fill:#F2735A;" d="M777.067,273.327c-5.293,0.528-10.606,1.47-15.474,3.614c-4.32,1.903-8.597,4.345-11.62,7.971
				c-36.555,43.851-8.056,82.175-1.821,87.239c5.578,4.53,11.579,9.039,18.646,10.338c7.339,1.348,14.852-0.96,21.702-3.917
				c11.921-5.145,22.947-12.356,32.44-21.214l41.277-36.154c-0.092-9.131-5.639-17.35-12.114-23.79
				C831.324,278.736,803.423,270.699,777.067,273.327z"/>
		</g>
		<g>
			<path style="fill:#F4CAB5;" d="M804.671,433.122c0.362-1.159,0.732-2.317,1.103-3.475c2.279-7.067,4.75-13.849,6.382-18.202
				c1.116-2.978,1.836-4.819,1.836-4.819l-22.124-22.464l-2.542-2.586l-12.374-12.551c-0.035,0.085-9.239,21.973-34.739,60.389
				c-6.49,9.758-3.463,30.725,31.35,42.828c29.68,10.315,27.373-6.174,26.634-15.485c-0.09-1.15-0.156-2.192-0.133-3.057
				C800.192,448.98,802.206,441.091,804.671,433.122z"/>
		</g>
		<g>
			<path style="fill:#EF9778;" d="M804.671,433.122c-6.083-6.703-15.469-19.509-19.923-25.681c-1.557-2.162-2.513-3.512-2.513-3.512
				c-0.085,0.319-0.16,0.639-0.236,0.959c-5.911,25.114,10.677,44.574,18.197,51.87c-0.09-1.15-0.156-2.192-0.133-3.057
				C800.192,448.98,802.206,441.091,804.671,433.122z"/>
		</g>
		<g>
			<path style="fill:#F4CAB5;" d="M769.27,374.422c0,0,5.826,61.04,49.806,76.351c43.979,15.31,58.85-61.374,47.633-94.479
				C855.491,323.188,780.21,271.051,769.27,374.422z"/>
		</g>
		<g>
			<g>
				<path style="fill:#EF9778;" d="M773.366,396.202c3.684,14.886,10.938,28.4,21.291,39.713c0.525,0.574,1.377-0.281,0.853-0.853
					c-10.216-11.163-17.345-24.492-20.98-39.18C774.343,395.128,773.179,395.447,773.366,396.202z"/>
			</g>
		</g>
		<g>
			<g>
				<path style="fill:#B26547;" d="M825.37,409.041c-0.773,0.034-0.778,1.241,0,1.207c8.961-0.392,15.484,6.066,18.1,14.169
					c0.238,0.736,1.403,0.421,1.164-0.321C841.849,415.47,834.883,408.626,825.37,409.041z"/>
			</g>
		</g>
		<g>
			<g>
				<path style="fill:#B26547;" d="M854.532,377.209c0.691,0.349,1.303-0.691,0.609-1.042c-4.011-2.027-8.802-0.964-10.839,3.286
					c-1.594,3.326-1.028,7.5-0.622,11.005c0.49,4.224,3.855,13.232-2.953,13.703c-0.77,0.053-0.776,1.26,0,1.207
					c5.069-0.351,5.836-0.765,5.32-6.307c-0.322-3.457-1.053-6.866-1.351-10.326c-0.139-1.621-0.29-3.286-0.158-4.914
					C844.971,378.458,849.222,374.526,854.532,377.209z"/>
			</g>
		</g>
		<g>
			<path style="fill:#F2735A;" d="M826.45,365.116c-3.133,2.111-4.26,5.919-3.036,7.735c1.224,1.816,4.027,0.496,7.16-1.615
				c3.133-2.111,5.409-4.214,4.185-6.03C833.535,363.391,829.583,363.005,826.45,365.116z"/>
		</g>
		<g>
			<path style="fill:#CC4C3B;" d="M850.636,366.7c-1.229,1.813,1.042,3.922,4.169,6.041c3.127,2.119,5.927,3.447,7.156,1.634
				c1.229-1.813,0.112-5.624-3.015-7.743C855.818,364.513,851.865,364.887,850.636,366.7z"/>
		</g>
		<g>
			<path style="fill:#353757;" d="M826.153,385.741c-0.204,2.547,1.075,4.727,2.856,4.87c1.781,0.143,3.391-1.806,3.595-4.353
				c0.204-2.547-1.075-4.727-2.856-4.87C827.967,381.245,826.357,383.194,826.153,385.741z"/>
		</g>
		<g>
			<path style="fill:#353757;" d="M852.826,387.656c-0.204,2.547,1.075,4.727,2.856,4.87c1.781,0.143,3.391-1.806,3.595-4.353
				s-1.075-4.727-2.856-4.87C854.64,383.16,853.03,385.109,852.826,387.656z"/>
		</g>
		<g>
			<path style="fill:#F2735A;" d="M911.298,354.015c-0.019,1.013-0.125,2.017-0.289,2.992c-1.825,11.024-11.42,19.75-18.505,22.009
				c-9.643,3.07-20.3-0.656-29.027-5.792c-8.717-5.135-16.101-12.211-23.94-18.611c-7.394-6.023-16.594-11.796-25.861-9.518
				l11.12-23.669l0.328-0.685l3.967-8.447c12.356-3.35,25.6-1.573,37.724,2.5C901.5,326.465,911.703,341.418,911.298,354.015z"/>
		</g>
		<g>
			<path style="fill:#F2735A;" d="M751.666,374.923c20.7,20.777,42.664,3.768,42.664,3.768c2.86-30.63,19.35-33.594,19.35-33.594
				l16.125-28.453l-31.093-10.988c0,0-20.528,10.127-21.416,10.42C776.41,316.368,730.966,354.147,751.666,374.923z"/>
		</g>
		<g>
			<path style="fill:#F4CAB5;" d="M769.846,365.42c-5.582,5.488-4.508,15.634,2.401,22.661c6.908,7.027,17.034,8.274,22.617,2.786
				c5.583-5.488,4.508-15.634-2.401-22.661C785.555,361.179,775.429,359.931,769.846,365.42z"/>
		</g>
		<g>
			<g>
				<path style="fill:#CC4C3B;" d="M734.517,310.484c-4.407,17.765-11.574,35.473-1.948,52.861
					c7.147,12.91,20.57,22.634,35.728,21.822c0.705-0.038,0.71-1.139,0-1.101c-15.28,0.819-28.657-9.321-35.438-22.514
					c-8.603-16.736-1.46-33.927,2.72-50.775C735.749,310.089,734.688,309.796,734.517,310.484z"/>
			</g>
		</g>
		<g>
			<g>
				<path style="fill:#EF9778;" d="M765.812,372.421c-0.323,5.63,0.64,11.113,4.882,15.144c4.514,4.288,10.478,7.367,16.649,8.149
					c0.768,0.097,0.761-1.11,0-1.207c-5.776-0.732-11.596-3.749-15.796-7.795c-4.002-3.855-4.834-8.962-4.529-14.291
					C767.063,371.645,765.856,371.647,765.812,372.421z"/>
			</g>
		</g>
		<g>
			<g>
				<path style="fill:#CC4C3B;" d="M764.031,272.263c-0.174,0.367-0.801,0.54-1.12,0.087c-1.728-2.5-3.813-4.682-6.139-6.583
					c-0.01-0.019-0.019-0.019-0.029-0.029c-5.975-4.904-13.534-8.051-20.696-10.493c-0.608-0.203-1.226-0.406-1.844-0.598
					c-0.048-0.019-0.096-0.039-0.135-0.039c-5.657-1.776-11.893-2.993-17.791-2.365c0.599-0.463,1.216-0.927,1.853-1.371
					c6.159-0.251,12.568,1.245,18.244,3.186c7.414,2.529,15.117,5.763,21.237,10.812c0.01,0,0.019,0.01,0.029,0.019
					c2.394,1.979,4.547,4.238,6.342,6.834C764.117,271.916,764.117,272.109,764.031,272.263z"/>
			</g>
		</g>
		<g>
			<g>
				<path style="fill:#CC4C3B;" d="M714.086,254.058c0.463-0.406,0.927-0.801,1.409-1.197c1.274-0.01,2.587,0.058,3.861,0.212
					c0.01,0,0.01,0,0.019,0c1.796,0.212,3.562,0.589,5.213,1.178c0.01,0,0.01,0,0.019,0.01c1.728,0.627,3.34,1.477,4.682,2.606
					c3.62,3.041,6.12,9.489,3.07,13.601c-3.485,4.691-10.396,5.155-15.657,4.112c-4.788-0.936-9.151-3.157-13.177-5.908
					c0.125-0.405,0.27-0.811,0.425-1.207c6.467,4.469,14.094,7.906,21.69,5.821c1.516-0.415,2.973-1.081,4.18-2.085
					c2.24-1.863,2.674-3.234,2.143-6.052c-0.763-4.016-2.182-6.834-6.052-8.765c-2.143-1.062-4.498-1.718-6.912-2.037
					c-1.66-0.222-3.34-0.28-5-0.212L714.086,254.058z"/>
			</g>
		</g>
		<g>
			<g>
				<path style="fill:#CC4C3B;" d="M911.298,354.015c-0.019,1.013-0.125,2.017-0.289,2.992c-0.686,1.004-1.535,1.921-2.52,2.741
					c-4.421,3.678-10.483,3.784-15.86,2.674c-14.026-2.896-26.411-12.124-37.599-20.542c-8.823-6.641-19.074-16.101-30.233-20.455
					c-3.745-1.467-7.587-2.346-11.506-2.365c-9.335-0.039-16.719,5.618-18.708,14.779c-1.873,8.62,1.187,17.279,4.016,25.32
					c0.232,0.666-0.83,0.956-1.062,0.29c-3.919-11.13-8.437-25.986,1.004-35.813c7.201-7.51,17.646-6.496,26.584-2.896
					c2.471,0.994,4.836,2.191,6.979,3.456c12.829,7.587,23.891,17.791,36.363,25.909c6.545,4.257,13.553,8.128,21.063,10.367
					c5.116,1.535,11.082,2.481,16.053-0.097C908.267,358.987,910.342,356.689,911.298,354.015z"/>
			</g>
		</g>
		<g>
			<path style="fill:#F9B458;" d="M829.013,510.057c0,0-17.424,68.7,27.361,72.545c44.784,3.846,58.182-44.818,58.182-44.818
				c-21.558-54.111-62.626-82.397-62.626-82.397L829.013,510.057z"/>
		</g>
		<g>
			<path style="fill:#F4CAB5;" d="M589.016,424.806c-15.914-8.051-35.016-9.565-51.999-4.121l-26.371-15.132
				c-8.859-4.133-18.728-6.081-28.494-5.622c-2.556,0.12-5.4,0.558-6.962,2.585c-1.069,1.387-1.293,3.235-1.344,4.986
				c-0.278,9.543,3.526,18.917,9.354,26.479c5.828,7.562,13.578,13.452,21.786,18.327c21.086,12.523,46.095,18.794,70.479,16.179
				c7.075-0.759,14.272-2.329,20.165-6.318c5.893-3.988,10.266-10.809,9.716-17.904
				C604.663,435.432,596.923,428.806,589.016,424.806z"/>
		</g>
		<g>
			<path style="fill:#F4CAB5;" d="M460.834,389.39c-5.845,4.088,6.83,25.676,16.195,39.065
				c9.365,13.389,15.478,15.003,19.605,12.116c4.127-2.887,4.707-9.183-4.658-22.571C482.61,404.611,467.636,384.632,460.834,389.39
				z"/>
		</g>
		<g>
			<path style="fill:#F4CAB5;" d="M483.572,371.349c-7.115,0.5-7.349,25.533-6.203,41.831c1.145,16.299,5.557,20.827,10.581,20.474
				c5.024-0.353,8.759-5.454,7.614-21.753C494.419,395.603,491.853,370.767,483.572,371.349z"/>
		</g>
		<g>
			<path style="fill:#F4CAB5;" d="M505.039,378.272c-7.121,0.4-7.708,25.426-6.792,41.74c0.915,16.313,5.263,20.904,10.292,20.621
				c5.029-0.282,8.836-5.33,7.92-21.643C515.542,402.676,513.327,377.807,505.039,378.272z"/>
		</g>
		<g>
			<path style="fill:#F4CAB5;" d="M522.123,393.454c-5.613,2.341,1.014,22.631,6.377,35.489
				c5.363,12.858,10.161,15.316,14.124,13.663c3.964-1.653,5.593-6.792,0.23-19.65C537.491,410.098,528.656,390.729,522.123,393.454
				z"/>
		</g>
		<g>
			<g>
				<path style="fill:#EF9778;" d="M540.635,418.845c3.093,5.985,4.752,12.321,4.993,19.053c0.028,0.774,1.235,0.778,1.207,0
					c-0.249-6.928-1.976-13.504-5.158-19.662C541.32,417.546,540.279,418.156,540.635,418.845z"/>
			</g>
		</g>
		<g>
			<g>
				<path style="fill:#EF9778;" d="M545.987,429.979c-0.747-0.219-1.066,0.945-0.321,1.163c3.463,1.014,6.327,3.19,8.227,6.258
					c0.408,0.659,1.452,0.054,1.042-0.609C552.871,433.459,549.75,431.081,545.987,429.979z"/>
			</g>
		</g>
		<g>
			<g>
				<path style="fill:#EF9778;" d="M548.771,430.419c-0.518,0.576,0.333,1.432,0.853,0.853c5.379-5.986,13.344-8.248,21.063-5.959
					c0.746,0.221,1.065-0.943,0.321-1.163C562.921,421.752,554.41,424.144,548.771,430.419z"/>
			</g>
		</g>
		<g>
			<path style="fill:#F4CAB5;" d="M547.712,458.322c0,0-32.251,172.867,18.91,212.665c97.358,75.734,65.567-86.993,65.567-86.993
				s-33.909-81.577-26.842-139.727L547.712,458.322z"/>
		</g>
		<g>
			<g>
				<path style="fill:#EF9778;" d="M497.637,400.105c-0.448,7.442,4.583,15.539,7.807,21.998c0.347,0.695,1.388,0.085,1.042-0.609
					c-3.143-6.296-8.079-14.145-7.643-21.389C498.89,399.33,497.684,399.333,497.637,400.105z"/>
			</g>
		</g>
		<g>
			<g>
				<path style="fill:#EF9778;" d="M515.713,405.627c0.003-0.777-1.204-0.777-1.207,0c-0.016,5.342,3.545,9.195,7.134,12.728
					c0.554,0.545,1.408-0.307,0.853-0.853C519.142,414.203,515.697,410.651,515.713,405.627z"/>
			</g>
		</g>
		<g>
			<g>
				<path style="fill:#EF9778;" d="M475.284,398.328c1.754,8.639,5.919,16.276,12.22,22.441c0.555,0.543,1.409-0.309,0.853-0.853
					c-6.173-6.04-10.192-13.447-11.91-21.909C476.293,397.247,475.13,397.569,475.284,398.328z"/>
			</g>
		</g>
		<g>
			<g>
				<path style="fill:#EF9778;" d="M585.508,461.748c-17.515,6.116-36.23,6.503-53.981,1.101c-0.745-0.227-1.063,0.938-0.321,1.164
					c17.928,5.456,36.929,5.078,54.623-1.101C586.557,462.657,586.244,461.491,585.508,461.748z"/>
			</g>
		</g>
		<g>
			<g>
				<path style="fill:#FFFFFF;" d="M870.55,541.654c-0.144,14.818-0.575,29.629-1.293,44.431c-0.038,0.776,1.169,0.774,1.207,0
					c0.718-14.802,1.149-29.613,1.293-44.431C871.764,540.877,870.558,540.877,870.55,541.654z"/>
			</g>
		</g>
	</g>
	<g>
		<g>
			<g>
				<polygon style="fill:#F2735A;" points="567.177,1806.188 721.722,1806.188 738.393,1762.19 755.786,1806.188 869.918,1806.188 
					867.239,1601.55 610.043,1601.55 				"/>
			</g>
			<g>
				<path style="fill:#BFB5FA;" d="M599.054,1326.395c0,107.052,87.621,253.308,167.918,253.308s150.53-119.593,150.53-226.645
					c0-107.052-67.139-155.289-147.436-155.289C689.769,1197.769,599.054,1219.343,599.054,1326.395z"/>
			</g>
			<g>
				<path style="fill:#BFB5FA;" d="M621.581,1310.374c0,0-11.908,159.994-30.25,287.881c0,0-10.777,24.251,75.019,26.793
					c201.273,5.961,200.888-23.497,200.888-23.497s51.26-177.447,44.839-283.837
					C907.469,1241.367,621.581,1310.374,621.581,1310.374z"/>
			</g>
			<g>
				<g>
					<path style="fill:#BFB5FA;" d="M792.699,1219.345c-21.211-16.913-99.255-24.619-153.743,11.554
						c-153.603,101.972-139.825,203.981-125.62,233.475c14.205,29.494,38.973,40.311,81.46,45.7c47.442,6.017,153.62,0,153.62,0
						c27.128,0,49.12-21.991,49.12-49.12c0-27.128-21.991-49.12-49.12-49.12H623.388l87.788-110.1
						C728.088,1280.523,813.91,1236.257,792.699,1219.345z"/>
				</g>
			</g>
			<g>
				<g>
					<path style="fill:#BFB5FA;" d="M977.009,1196.856l-47.877,114.12c0,0-2.729-4.047-5.278-8.424
						c-14.234-24.446-46.284-77.14-90.889-93.312c-25.504-9.247-113.067,5.807-91.172,67.435
						c61.722,173.732,174.706,158.508,207.436,159.179c75.72,1.551,90.854-214.544,90.854-214.544
						C1040.088,1217.422,980.733,1184.719,977.009,1196.856z"/>
				</g>
			</g>
			<g>
				<path style="fill:#282F35;" d="M676.549,1444.733c-2.372,3.969-4.646,8.359-6.704,13.06
					c-6.211,14.191-8.882,27.753-7.769,36.432c0.606,4.722,2.333,8,5.214,9.147c0.459,0.187,0.949,0.311,1.447,0.385
					c0.006-0.006,0.006-0.006,0.011,0c1.886,0.256,4.019-0.291,6.302-1.531c7.849-4.24,17.416-16.62,24.422-32.621
					c9.593-21.917,10.552-42.414,2.368-45.681C695.415,1421.359,685.259,1430.203,676.549,1444.733z"/>
			</g>
			<g>
				<path style="fill:#282F35;" d="M1037.448,1216.142c-1.918-2.156-4.805-4.561-8.392-7.01
					c-5.341-3.642-12.229-7.393-19.787-10.597c-10.779-4.574-20.389-6.912-26.169-6.754c-3.502,0.085-5.597,1.09-5.706,3.069
					c-0.073,1.382,0.828,3.1,2.527,5.018c3.343,3.788,9.768,8.355,17.758,12.612c3.289,1.748,6.839,3.453,10.554,5.024
					c6.955,2.954,13.428,4.994,18.69,6.041c3.209,0.633,5.974,0.895,8.13,0.773c3.094-0.183,4.927-1.169,5.03-3.015
					c0.018-0.292-0.012-0.609-0.085-0.932c0-0.006,0-0.006,0-0.006C1039.726,1219.139,1038.843,1217.707,1037.448,1216.142z"/>
			</g>
			<g>
				<g>
					<path style="fill:#FFFFFF;" d="M587.915,1393.64c-0.686-0.219-0.98,0.859-0.297,1.077
						c37.153,11.856,74.291,23.247,112.969,28.999c0.703,0.105,1.006-0.971,0.297-1.076
						C662.206,1416.887,625.068,1405.497,587.915,1393.64z"/>
				</g>
			</g>
			<g>
				<g>
					<path style="fill:#FFFFFF;" d="M640.53,1378.088c-5.138,9.142-10.276,18.283-15.414,27.425
						c-0.352,0.627,0.612,1.191,0.964,0.563c5.138-9.142,10.276-18.283,15.414-27.425
						C641.847,1378.024,640.883,1377.46,640.53,1378.088z"/>
				</g>
			</g>
			<g>
				<g>
					<path style="fill:#FFFFFF;" d="M618.706,1510.426c-0.718-0.037-0.716,1.08,0,1.116c13.503,0.694,27.006,0.603,40.499-0.271
						c0.713-0.046,0.719-1.163,0-1.116C645.712,1511.029,632.209,1511.12,618.706,1510.426z"/>
				</g>
			</g>
			<g>
				<g>
					<path style="fill:#FFFFFF;" d="M763.062,1700.083c-4.187,2.269-6.223,6.233-8.251,10.387
						c-2.578,5.281-4.907,10.687-6.998,16.178c-4.57,12-7.881,24.421-10.063,37.07c-0.121,0.703,0.954,1.004,1.076,0.297
						c1.885-10.924,4.601-21.676,8.264-32.142c1.91-5.456,4.061-10.829,6.451-16.092c2.396-5.277,4.738-11.836,10.084-14.734
						C764.257,1700.704,763.694,1699.74,763.062,1700.083z"/>
				</g>
			</g>
			<g>
				<g>
					<path style="fill:#FFFFFF;" d="M678.496,1642.003c-11.196,27.634-38.312,45.218-68.109,44.359
						c-0.719-0.021-0.718,1.096,0,1.116c30.338,0.875,57.802-17.079,69.186-45.178
						C679.842,1641.634,678.762,1641.344,678.496,1642.003z"/>
				</g>
			</g>
			<g>
				<g>
					<path style="fill:#FFFFFF;" d="M842.56,1635.735c-37.667,9.53-77.855,6.521-116.341,5.851
						c-38.642-0.672-77.877-0.477-115.777-8.991c-0.7-0.157-0.998,0.919-0.297,1.076c38,8.536,77.331,8.357,116.074,9.031
						c38.597,0.671,78.857,3.668,116.638-5.891C843.553,1636.635,843.258,1635.558,842.56,1635.735z"/>
				</g>
			</g>
			<g>
				<g>
					<path style="fill:#FFFFFF;" d="M609.911,1686.722c-5.463,29.449-11.852,58.714-19.16,87.76
						c-0.175,0.697,0.901,0.994,1.077,0.297c7.307-29.046,13.696-58.311,19.159-87.76
						C611.117,1686.316,610.042,1686.016,609.911,1686.722z"/>
				</g>
			</g>
			<g>
				<g>
					<path style="fill:#FFFFFF;" d="M843.257,1637.155c-0.377-0.61-1.343-0.05-0.964,0.563c6.188,10.023,13.803,18.9,22.782,26.53
						c0.544,0.463,1.338-0.323,0.789-0.789C856.961,1655.892,849.397,1647.101,843.257,1637.155z"/>
				</g>
			</g>
			<g>
				<path style="fill:#282F35;" d="M693.988,1105.93c7.893,37.695,51.685,50.412,70.886,40.622
					c19.201-9.791-37.51-96.866-44.654-97.313C720.219,1049.239,685.153,1063.741,693.988,1105.93z"/>
			</g>
			<g>
				<path style="fill:#F4CAB5;" d="M797.185,1183.354c0.295-3.662,0.643-7.261,1-10.539c0.375-3.438,0.75-6.502,1.054-8.895
					c0.411-3.206,0.696-5.189,0.696-5.189l-27.051-17.013l-3.117-1.956l-15.12-9.502c-0.018,0.098-4.001,23.827-20.22,67.651
					c-4.126,11.146,6.959,44.839,44.26,42.771c23.216-1.287,20.105-24.445,18.462-32.268c-0.616-2.965-0.777-7.35-0.67-12.316
					C796.56,1192.079,796.828,1187.667,797.185,1183.354z"/>
			</g>
			<g>
				<path style="fill:#EF9778;" d="M769.071,1147.541c-1.447,26.159,18.639,42.645,27.409,48.557
					c0.08-4.019,0.348-8.431,0.705-12.744c0.295-3.662,0.643-7.261,1-10.539c-7.047-5.117-19.987-17.46-25.926-23.22
					c-1.938-1.875-3.126-3.054-3.126-3.054C769.107,1146.88,769.089,1147.21,769.071,1147.541z"/>
			</g>
			<g>
				<path style="fill:#F4CAB5;" d="M748.051,1131.616c0,0,20.053,63.775,73.742,47.596c52.804-15.911,31.619-52.282,7.98-106.006
					C815.505,1040.779,713.796,1031.987,748.051,1131.616z"/>
			</g>
			<g>
				<g>
					<path style="fill:#EF9778;" d="M756.785,1153.968c-0.488-0.604-1.337,0.254-0.853,0.853
						c9.77,12.109,22.214,21.374,36.584,27.327c0.717,0.297,1.029-0.87,0.321-1.164
						C778.681,1175.121,766.403,1165.889,756.785,1153.968z"/>
				</g>
			</g>
			<g>
				<g>
					<path style="fill:#BC644A;" d="M829.822,1145.142c-8.204,5.942-18.199,4.038-25.809-1.943
						c-0.604-0.475-1.464,0.374-0.853,0.853c8.003,6.29,18.603,8.41,27.271,2.132
						C831.054,1145.733,830.452,1144.685,829.822,1145.142z"/>
				</g>
			</g>
			<g>
				<g>
					<path style="fill:#BC644A;" d="M816.545,1134.56c-0.68,0.376-0.072,1.419,0.609,1.042c4.26-2.359,5.741-2.73,3.031-7.599
						c-3.721-6.686-11.08-13.925-10.285-22.073c0.075-0.772-1.132-0.767-1.207,0c-0.476,4.877,1.875,9.038,4.38,13.078
						C815.624,1123.122,823.21,1130.869,816.545,1134.56z"/>
				</g>
			</g>
			<g>
				<path style="fill:#BC644A;" d="M784.11,1100.278c-5.833,3.004-8.836,8.79-7.342,11.692c1.495,2.902,6.545,1.093,12.379-1.912
					c5.833-3.004,10.24-6.065,8.745-8.967C796.398,1098.189,789.943,1097.274,784.11,1100.278z"/>
			</g>
			<g>
				<path style="fill:#BC644A;" d="M819.235,1087.735c-6.752,1.986-11.162,7.211-10.241,10.343
					c0.921,3.132,6.593,2.197,13.345,0.211c6.752-1.986,12.027-4.271,11.106-7.403
					C832.524,1087.755,825.987,1085.749,819.235,1087.735z"/>
			</g>
			<g>
				<path style="fill:#282F35;" d="M794.493,1117.288c-1.88,0.7-2.592,3.446-1.591,6.133c1.001,2.687,3.336,4.298,5.216,3.597
					c1.88-0.7,2.592-3.446,1.591-6.133C798.708,1118.199,796.372,1116.588,794.493,1117.288z"/>
			</g>
			<g>
				<path style="fill:#282F35;" d="M819.399,1106.094c-1.88,0.7-2.592,3.446-1.591,6.133c1.001,2.687,3.336,4.298,5.216,3.597
					c1.88-0.7,2.592-3.446,1.591-6.133C823.614,1107.004,821.278,1105.394,819.399,1106.094z"/>
			</g>
			<g>
				<path style="fill:#282F35;" d="M763.444,1078.063c2.833-0.524,5.727-0.68,8.106-0.551c9.133,0.494,18.238,1.505,27.257,3.026
					c5.95,1.004,12.015,1.262,18.015,0.623c29.772-3.172,26.397-23.586,10.467-31.559c-13.678-6.846-30.369-6.252-44.986-1.742
					c0,0,19.723-6.212,15.882-14.696c-3.84-8.484-61.444-10.717-77.966,16.076c0,0-19.201,11.731-18.308,30.202
					c0.893,18.471,17.798,52.443,35.267,51.631c2.081-0.097,4.143,0.457,6.216,0.289c6.219-0.505,12.265-3.333,16.499-7.932
					c5.293-5.749,7.602-14.463,4.713-21.724c-1.444-3.629-3.715-6.889-6.15-9.943c-0.041-0.052-0.082-0.104-0.123-0.155
					C754.445,1086.642,757.243,1079.209,763.444,1078.063z"/>
			</g>
			<g>
				<path style="fill:#282F35;" d="M717.54,1046.783c0,0-1.218-8-5.582-8.931C707.594,1036.921,707.716,1043.88,717.54,1046.783z"/>
			</g>
			<g>
				<g>
					<path style="fill:#F4CAB5;" d="M744.722,1123.101c-2.775,7.433,2.56,16.291,11.917,19.784
						c9.356,3.493,19.191,0.299,21.966-7.134c2.775-7.433-2.56-16.291-11.917-19.784
						C757.332,1112.473,747.497,1115.667,744.722,1123.101z"/>
				</g>
				<g>
					<g>
						<path style="fill:#EF9778;" d="M773.356,1142.289c-5.749,1.799-12.264,1.529-17.996-0.369
							c-5.246-1.738-8.243-6.15-10.208-11.079c-0.284-0.713-1.451-0.402-1.163,0.321c1.944,4.875,4.765,9.336,9.777,11.447
							c6.075,2.558,13.689,2.791,19.911,0.844C774.416,1143.221,774.101,1142.056,773.356,1142.289z"/>
					</g>
				</g>
			</g>
			<g>
				<g>
					<path style="fill:#EF9778;" d="M767.247,1135.931c0.458,0.616,1.506,0.015,1.042-0.609c-0.934-1.256-1.366-2.768-0.948-4.313
						c0.234-0.864,0.826-1.623,0.64-2.567c-0.3-1.529-2.272-2.748-3.506-3.442c-0.678-0.381-1.287,0.661-0.609,1.042
						c0.812,0.456,2.546,1.375,2.801,2.327c0.234,0.873-0.501,2.132-0.633,3.029
						C765.792,1133.043,766.267,1134.613,767.247,1135.931z"/>
				</g>
			</g>
			<g>
				<g>
					<path style="fill:#EF9778;" d="M764.048,1115.885c1.675,0.305,3.18,0.948,4.56,1.947c0.63,0.456,1.233-0.59,0.609-1.042
						c-1.451-1.05-3.086-1.748-4.848-2.068C763.609,1114.583,763.284,1115.746,764.048,1115.885z"/>
				</g>
			</g>
			<g>
				<path style="fill:#F4CAB5;" d="M1061.644,1134.718c-0.488-0.255-1.06-0.227-1.604-0.153c-4.968,0.671-8.995,4.443-11.808,8.59
					c-2.323,3.428-4.084,7.207-6.318,10.689c-0.065,0.113-0.129,0.218-0.202,0.33c-5.005,1.658-10.375,2.221-15.609,1.558
					c-3.349-0.417-6.641-1.319-10.015-1.523c-5.838-0.371-11.729,1.563-16.399,5.071c-2.921,2.194-5.37,5.004-7.044,8.258
					c-1.161,2.262-1.953,4.765-2.153,7.286c0.71,17.856,11.418,21.788,24.018,23.259c0.332,0.039,0.672,0.078,1.005,0.109
					c3.603,0.386,7.346,0.599,11.038,0.892c7.861,0.469,15.738,0.664,23.611,0.592c7.684-0.078,15.494-0.425,22.774-2.878
					c2.351-0.786,4.588-1.776,6.724-2.94c13.119-7.118,22.353-20.692,28.7-34.507c0.485-1.056,0.884-2.475,0.007-3.242
					c-0.376-0.328-0.899-0.424-1.403-0.465c-4.605-0.443-9.005,2.088-12.416,5.225c-3.401,3.13-6.163,6.921-9.702,9.905
					c-1.483,1.25-3.083,2.331-4.742,3.318c5.858-8.293,10.059-18.065,13.073-27.777c0.374-1.207,0.611-2.792-0.438-3.492
					c-0.456-0.303-1.04-0.328-1.585-0.314c-5.013,0.174-9.389,3.526-12.605,7.368c-1.332,1.586-2.531,3.283-3.712,4.982
					c1.662-4.859,2.961-9.856,3.971-14.809c0.247-1.23,0.322-2.834-0.791-3.421c-0.479-0.254-1.06-0.227-1.604-0.153
					c-4.968,0.67-8.987,4.444-11.808,8.59c-2.813,4.156-4.801,8.848-7.789,12.871c-0.153,0.198-0.312,0.386-0.465,0.584
					c2.714-6.556,4.682-13.51,6.07-20.385C1062.682,1136.909,1062.757,1135.305,1061.644,1134.718z"/>
			</g>
			<g>
				<path style="fill:#F4CAB5;" d="M979.922,1199.87c3.343,3.788,9.768,8.355,17.758,12.612c3.289,1.748,6.839,3.453,10.554,5.024
					c6.955,2.954,13.428,4.994,18.69,6.041l2.132-14.415l1.455-9.835l-37.868-31.759l-9.543,24.244L979.922,1199.87z"/>
			</g>
			<g>
				<g>
					<path style="fill:#FFFFFF;" d="M929.11,1308.782c-2.729,7.032-4.766,14.228-6.126,21.648c-0.129,0.702,0.947,1.004,1.076,0.297
						c1.36-7.42,3.396-14.615,6.126-21.648C930.446,1308.408,929.367,1308.118,929.11,1308.782z"/>
				</g>
			</g>
			<g>
				<g>
					<path style="fill:#EF9778;" d="M1008.017,1192.39c-0.721-0.29-1.034,0.877-0.321,1.164c7.655,3.078,15.268,5.948,23.554,6.623
						c0.774,0.063,0.77-1.144,0-1.207C1023.08,1198.304,1015.555,1195.42,1008.017,1192.39z"/>
				</g>
			</g>
			<g>
				<g>
					<path style="fill:#EF9778;" d="M1043.354,1150.465c-2.128,2.988-3.215,6.42-3.229,10.085c-0.003,0.776,1.204,0.778,1.207,0
						c0.013-3.472,1.051-6.649,3.064-9.476C1044.847,1150.44,1043.801,1149.837,1043.354,1150.465z"/>
				</g>
			</g>
			<g>
				<g>
					<path style="fill:#EF9778;" d="M1056.997,1156.847c-1.534,3.406-2.693,6.921-3.459,10.578
						c-0.159,0.758,1.004,1.082,1.163,0.321c0.745-3.553,1.846-6.978,3.338-10.289
						C1058.356,1156.754,1057.316,1156.14,1056.997,1156.847z"/>
				</g>
			</g>
			<g>
				<g>
					<path style="fill:#EF9778;" d="M1075.183,1153.145c-2.93,5.89-4.962,12.057-6.082,18.543c-0.131,0.76,1.031,1.086,1.164,0.321
						c1.103-6.389,3.07-12.445,5.96-18.255C1076.57,1153.061,1075.53,1152.449,1075.183,1153.145z"/>
				</g>
			</g>
		</g>
		<g>
			<g>
				<g>
					<path style="fill:#F9B458;" d="M754.068,1353.067c0,0-22.507,70.808-27.567,169.532c0,0,22.98,4.885,57.007,4.858
						c55.443-0.044,111.37-0.008,140.86-0.552c0,0,15.214-54.957,23.385-107.171c0-0.009,0-0.009,0.008-0.017
						c3.805-24.321,6.08-48.049,4.575-65.337C952.336,1354.38,802.836,1350.575,754.068,1353.067z"/>
				</g>
				<g>
					<g>
						<path style="fill:#FFFFFF;" d="M831.658,1431.736c-2.384,6.737-2.408,15.356,6.005,17.386
							c7.589,1.832,13.746-3.605,17.058-9.887c3.018-5.725,7.049-14.915,0.374-19.643c-6.95-4.923-14.684,0.327-20.118,4.861
							c-2.068,1.726,0.904,4.671,2.957,2.957c3.559-2.969,8.301-6.972,13.261-5.101c6.19,2.334,2.046,10.771-0.086,14.815
							c-2.051,3.891-5.214,7.876-9.968,8.143c-7.741,0.436-7.312-7.16-5.451-12.42
							C836.589,1430.306,832.55,1429.212,831.658,1431.736z"/>
					</g>
				</g>
				<g>
					<path style="fill:#EFA459;" d="M924.368,1526.905c0,0,15.214-54.957,23.385-107.171
						c-23.368,78.844-159.436,106.762-164.245,107.724C838.95,1527.541,894.878,1527.449,924.368,1526.905z"/>
				</g>
			</g>
			<g style="opacity:0.4;">
				<path style="fill:#EFA459;" d="M764.939,1362.106c-3.903,1.673-17.285,63.564-17.285,63.564
					c9.569,9.502,94.788-56.873,93.174-60.776C839.215,1360.99,768.842,1360.433,764.939,1362.106z"/>
			</g>
		</g>
		<g>
			<g>
				<path style="fill:#F4CAB5;" d="M775.001,1421.527c5.497,0.379,10.815,2.078,16.282,2.694c5.481,0.616,11.486-0.046,15.598-3.709
					c0.455-0.394,0.89-0.854,1.02-1.433c0.303-1.352-1.077-2.435-2.286-3.108c-15.808-8.808-34.218-15.355-51.823-12.969
					c-2.871,0.383-5.715,1.005-8.526,1.903c-8.717,2.761-16.463,7.918-23.898,13.245c-7.613,5.465-15.041,11.189-22.263,17.166
					c-3.339,2.876-6.786,5.712-9.975,8.615c-0.298,0.263-0.597,0.54-0.889,0.811c-11.068,10.27-18.59,21.574-6.719,39.223
					c1.963,2.281,4.484,4.128,7.189,5.485c3.895,1.949,8.222,2.926,12.57,2.981c6.951,0.087,13.969-2.197,19.315-6.657
					c3.097-2.568,5.626-5.748,8.549-8.503c4.562-4.316,10.115-7.549,16.088-9.476c0.149,0.056,0.284,0.112,0.426,0.175
					c4.594,1.773,8.941,4.165,13.582,5.825c5.617,2.006,12.137,2.799,17.38-0.049c0.574-0.31,1.144-0.686,1.433-1.274
					c0.656-1.346-0.543-2.834-1.653-3.835c-6.167-5.627-12.944-10.923-20.16-15.312c0.286,0.083,0.572,0.151,0.857,0.234
					c5.698,1.764,10.905,4.873,16.529,6.887c5.624,2,12.137,2.799,17.38-0.05c0.574-0.31,1.151-0.693,1.433-1.274
					c0.656-1.346-0.543-2.834-1.645-3.841c-4.451-4.048-9.211-7.934-14.224-11.432c2.329,0.801,4.673,1.589,7.068,2.176
					c5.79,1.429,12.349,1.573,17.286-1.784c0.533-0.37,1.076-0.804,1.301-1.416c0.515-1.409-0.827-2.765-2.034-3.661
					c-9.721-7.21-20.626-13.641-32.082-17.49C770.401,1421.456,772.699,1421.369,775.001,1421.527z"/>
			</g>
			<g>
				<g>
					<path style="fill:#EF9778;" d="M752.53,1436.955c-0.79,0.215-0.455,1.445,0.339,1.229c7.441-2.027,16.321,2.788,23.299,5.172
						c0.778,0.266,1.112-0.965,0.339-1.229C769.164,1439.619,760.424,1434.804,752.53,1436.955z"/>
				</g>
			</g>
			<g>
				<g>
					<path style="fill:#EF9778;" d="M740.386,1451.253c-0.768,0.271-0.437,1.503,0.339,1.229c5.454-1.927,11.103-1.2,15.892,2.057
						c0.68,0.462,1.318-0.641,0.643-1.1C752.23,1450.017,746.125,1449.225,740.386,1451.253z"/>
				</g>
			</g>
			<g>
				<g>
					<path style="fill:#EF9778;" d="M754.49,1417.763c-0.779-0.261-1.114,0.969-0.339,1.229c4.658,1.562,9.394,2.645,14.262,3.294
						c0.81,0.108,0.802-1.167,0-1.274C763.665,1420.378,759.032,1419.286,754.49,1417.763z"/>
				</g>
			</g>
		</g>
	</g>
	<g>
		<g>
			<path style="fill:#FBE6D2;" d="M2091.839,1272.286c10.361,7.617,22.461,14.627,35.253,13.305
				c5.258-0.543,10.963-3.147,12.49-8.208c0.474-1.57,0.51-3.281,1.248-4.745c0.679-1.348,1.879-2.342,2.948-3.407
				c5.76-5.744,8.092-14.692,5.868-22.517l-52.088-30.889c-4.13,2.029-7.135,6.196-7.755,10.756
				c-0.157,1.158-0.184,2.379-0.757,3.397c-1.105,1.961-3.674,2.372-5.773,3.184c-7.659,2.96-10.287,13.21-7.487,20.929
				C2078.586,1261.81,2085.223,1267.422,2091.839,1272.286z"/>
		</g>
		<g>
			<g>
				<path style="fill:#FFFFFF;" d="M2101.385,1225.624c15.038,10.809,44.618,29.73,54.128,18.93
					c3.475-3.947,38.826-40.631,88.597-49.618c62.686-11.319,137.566-122.217,24.757-210.67
					c-41.515-32.552-107.613-29.142-150.117-0.054c-42.505,29.087-61.04,85.122-43.948,132.86
					c6.148,17.169,16.313,33.013,22.179,50.262c4.876,14.335,6.331,30.65,0.168,43.889
					C2094.814,1216.235,2096.629,1222.206,2101.385,1225.624z"/>
			</g>
			<g>
				<g>
					<path style="fill:#FBE6D2;" d="M2267.222,985.91c2.339,1.807,5.654-1.461,3.288-3.288
						C2268.187,980.785,2264.875,984.054,2267.222,985.91z"/>
					<path style="fill:#FBE6D2;" d="M2093.827,1216.424c0.311,7.376,6.28,11.239,11.779,14.986
						c11.151,7.598,24.098,16.307,37.731,18.358c4.529,0.681,9.4,0.393,12.992-2.759c1.797-1.577,3.35-3.497,5.07-5.165
						c7.873-7.636,16.536-14.478,25.667-20.544c13.623-9.049,28.456-16.401,44.193-20.954c11.319-3.274,22.575-4.665,33.302-9.811
						c19.574-9.39,35.96-25.448,47.341-43.789c12.604-20.314,19.193-44.403,17.2-68.332c-2.463-29.58-17.484-56.096-37.828-77.174
						c-6.467-6.7-13.461-12.848-20.764-18.619c2.366,1.828-0.949,5.096-3.288,3.288c24.332,19.228,45.722,43.844,53.997,74.335
						c6.26,23.066,4.055,47.691-5.583,69.512c-8.602,19.475-22.597,36.896-40.15,49.017c-7.684,5.307-16.089,9.666-25.076,12.284
						c-5.981,1.743-12.182,2.555-18.196,4.192c-7.539,2.051-14.885,4.755-22.018,7.938c-20.031,8.939-39.066,21.923-54.404,37.676
						c-2.171,2.229-3.893,4.181-7.25,4.537c-5.853,0.621-12.234-2.098-17.419-4.475c-6.473-2.968-12.631-6.625-18.602-10.493
						c-5.893-3.818-16.235-8.726-13.629-17.32c1.204-3.97,3.003-7.548,3.757-11.698c0.702-3.862,0.983-7.802,0.879-11.725
						c-0.23-8.683-2.195-17.253-5.162-25.39c-6.385-17.509-16.713-33.344-22.432-51.114c-9.382-29.152-5.499-61.538,9.17-88.271
						c30.288-55.194,106.178-76.954,162.72-50.753c6.875,3.186,13.4,7.115,19.396,11.748c-2.348-1.855,0.965-5.124,3.288-3.288
						c-50.25-38.824-131.719-29.061-173.684,17.76c-20.701,23.096-32.039,54.276-30.538,85.301
						c0.827,17.114,5.924,32.945,13.192,48.353c8.591,18.214,19.401,36.511,19.421,57.263c0.004,4.543-0.529,9.091-1.808,13.458
						C2095.944,1208.682,2093.65,1212.213,2093.827,1216.424z"/>
				</g>
			</g>
		</g>
		<g>
			<g>
				<path style="fill:#FBE6D2;" d="M2174.088,1095.661c-1.521-1.303-2.992-2.657-4.413-4.055c-0.192,1.912-0.422,3.823-0.691,5.732
					c1.419,1.259,2.86,2.47,4.306,3.63C2173.583,1099.204,2173.851,1097.434,2174.088,1095.661z"/>
				<path style="fill:#FBE6D2;" d="M2198.623,1119.6c-14.657,15.757-25.794,34.423-36.295,53.091
					c-13.629,24.227-27.086,48.552-40.625,72.83c-1.514,2.716,2.653,5.152,4.168,2.436c10.076-18.068,20.153-36.137,30.229-54.205
					c8.367-15.004,16.522-30.173,25.908-44.576c7.178-11.015,15.163-21.64,24.589-30.836c-1.784-0.437-3.554-0.946-5.304-1.521
					C2200.391,1117.734,2199.498,1118.659,2198.623,1119.6z"/>
				<path style="fill:#FBE6D2;" d="M2206.596,1118.339c1.388-1.354,2.808-2.677,4.26-3.965c-1.913-0.358-3.809-0.806-5.683-1.34
					c-1.32,1.234-2.614,2.496-3.882,3.784C2203.042,1117.393,2204.812,1117.902,2206.596,1118.339z"/>
				<path style="fill:#FBE6D2;" d="M2212.317,1113.089c6.137-5.262,12.877-9.816,20.135-13.388c3.346-1.647,6.906-3.39,10.626-3.968
					c6.992-1.085,10.207,4.384,6.038,9.907c-5.703,7.554-17.452,9.556-26.326,9.742c-4.011,0.084-8.007-0.272-11.934-1.008
					c-1.453,1.289-2.872,2.611-4.26,3.965c10.564,2.59,21.64,2.686,32.215-0.738c7.275-2.356,15.918-7.215,17.203-15.604
					c1.184-7.729-5.969-11.954-12.854-11.109c-8.779,1.077-17.642,6.571-24.787,11.483c-4.668,3.209-9.062,6.798-13.198,10.664
					c1.873,0.534,3.77,0.981,5.683,1.34C2211.341,1113.944,2211.824,1113.512,2212.317,1113.089z"/>
				<path style="fill:#FBE6D2;" d="M2156.979,1074.801c-2.092-4.106-3.443-8.59-3.498-13.223c-0.026-2.229,0.22-4.459,0.802-6.614
					c0.322-1.191,0.755-2.378,1.296-3.481c1.165-2.378,1.151-2.509,4.216-2.381c3.096,0.129,2.649-0.158,3.943,2.094
					c0.509,0.886,0.992,1.785,1.434,2.706c0.897,1.87,1.669,3.795,2.301,5.77c1.417,4.426,2.228,9.014,2.569,13.644
					c0.447,6.063,0.248,12.181-0.366,18.289c1.421,1.398,2.892,2.752,4.413,4.055c1.583-11.809,1.782-23.774-1.317-35.084
					c-1.557-5.68-5.764-19.575-13.725-18.667c-7.834,0.893-10.471,13.455-10.391,19.669c0.18,13.967,9.61,26.248,20.329,35.759
					c0.269-1.908,0.499-3.819,0.691-5.732C2164.495,1086.511,2160.05,1080.831,2156.979,1074.801z"/>
				<path style="fill:#FBE6D2;" d="M2180.657,1106.461c6.296,4.374,13.295,7.947,20.635,10.357c1.268-1.288,2.562-2.55,3.882-3.784
					c-3.323-0.947-6.574-2.157-9.715-3.602c-7.26-3.34-14.729-8.083-21.371-13.771c-0.237,1.773-0.505,3.543-0.799,5.306
					C2175.764,1102.951,2178.25,1104.789,2180.657,1106.461z"/>
				<path style="fill:#FBE6D2;" d="M2110.48,1236.503c-1.847,2.501,2.34,4.91,4.168,2.436c25.95-35.14,44.649-75.49,54.523-118.056
					c1.494-6.442,2.988-13.133,4.118-19.916c-1.446-1.16-2.886-2.37-4.306-3.63c-1.376,9.746-3.67,19.418-6.043,28.757
					C2152.82,1165.911,2134.877,1203.467,2110.48,1236.503z"/>
			</g>
		</g>
		<g>
			<g>
				<path style="fill:#FBE6D2;" d="M2267.437,918.85c3.389-9.05,6.779-18.1,10.168-27.15c1.091-2.912-3.573-4.17-4.654-1.283
					c-3.389,9.05-6.779,18.1-10.168,27.15C2261.692,920.479,2266.356,921.737,2267.437,918.85z"/>
			</g>
		</g>
		<g>
			<g>
				<path style="fill:#FBE6D2;" d="M2125.597,925.77c-11.469-16.015-22.938-32.029-34.406-48.044
					c-1.793-2.503-5.981-0.096-4.168,2.436c11.469,16.014,22.938,32.029,34.406,48.044
					C2123.222,930.709,2127.41,928.302,2125.597,925.77z"/>
			</g>
		</g>
		<g>
			<g>
				<path style="fill:#FBE6D2;" d="M2057.487,1005.417c2.811,1.261,5.268-2.897,2.436-4.167c-5.284-2.371-10.568-4.742-15.852-7.113
					c-2.811-1.261-5.268,2.897-2.436,4.168C2046.919,1000.675,2052.203,1003.046,2057.487,1005.417z"/>
			</g>
		</g>
		<g>
			<g>
				<path style="fill:#FBE6D2;" d="M2276.824,1262.888c-4.549-6.466-7.37-13.52-8.559-21.33c-0.466-3.061-5.117-1.76-4.654,1.283
					c1.241,8.158,4.299,15.737,9.045,22.484C2274.43,1267.845,2278.617,1265.437,2276.824,1262.888z"/>
			</g>
		</g>
		<g>
			<g>
				<path style="fill:#FBE6D2;" d="M2349.022,1126.708c2.811,1.261,5.268-2.897,2.436-4.168c-4.403-1.976-8.807-3.952-13.21-5.927
					c-2.811-1.261-5.268,2.897-2.436,4.168C2340.215,1122.756,2344.619,1124.732,2349.022,1126.708z"/>
			</g>
		</g>
		<g>
			<g>
				<path style="fill:#FBE6D2;" d="M2364.397,1031.824c3.105,0.128,3.1-4.698,0-4.827c-2.597-0.107-5.194-0.214-7.791-0.322
					c-3.106-0.128-3.1,4.698,0,4.826C2359.203,1031.609,2361.8,1031.717,2364.397,1031.824z"/>
			</g>
		</g>
		<g>
			<g>
				<path style="fill:#FBE6D2;" d="M2038.419,1175.508c6.796-3.181,12.962-7.357,18.493-12.422c2.296-2.102-1.125-5.508-3.413-3.413
					c-5.236,4.794-11.09,8.66-17.517,11.668C2033.172,1172.656,2035.62,1176.818,2038.419,1175.508z"/>
			</g>
		</g>
	</g>
	<g>
		<g>
			<path style="fill:#F9EADF;" d="M382.801,1581.417c9.801-48.568,8.258-99.522-4.502-147.401c-0.4-1.499-2.728-0.863-2.327,0.642
				c12.646,47.448,14.216,97.981,4.502,146.118C380.168,1582.292,382.494,1582.941,382.801,1581.417z"/>
		</g>
	</g>
	<g>
		<g>
			<polygon style="fill:#F7C598;" points="328.55,1075.512 339.713,1102.859 411.376,1093.614 363.796,1052.912 356.584,1077.6 			
				"/>
		</g>
		<g>
			<polygon style="fill:#F9EADF;" points="411.376,1093.614 340.211,1060.28 248.978,1076.514 			"/>
		</g>
		<g>
			<polygon style="fill:#F9EADF;" points="411.376,1093.614 362.399,1011.815 363.796,1052.912 			"/>
		</g>
	</g>
	<g>
		<g>
			<path style="fill:#DFDCFF;" d="M1146.659,877.747l-177.786,138.468c-2.294,1.786-2.705,5.094-0.918,7.387l67.821,87.079
				c1.786,2.293,5.094,2.705,7.387,0.918l177.786-138.468c2.294-1.786,2.705-5.094,0.919-7.387l-67.821-87.079
				C1152.26,876.372,1148.953,875.961,1146.659,877.747z"/>
		</g>
		<g>
			<polygon style="fill:#6063B3;" points="970.219,1026.136 970.379,1027.088 1102.573,1004.884 1102.83,1004.841 1156.833,881.87 
				1155.949,881.482 1102.156,1003.975 			"/>
		</g>
		<g>
			<polygon style="fill:#6063B3;" points="1102.156,1003.975 1079.556,1007.771 1032.144,1106.368 1033.014,1106.786 
				1080.209,1008.64 1102.83,1004.841 1112.053,983.839 1218.768,962.113 1218.575,961.168 1111.615,982.943 1111.37,982.993 			"/>
		</g>
	</g>
	<g>
		<g>
			<path style="fill:#F7C598;" d="M232.719,944.698c-1.368,27.31,6.048,54.85,23.32,76.317
				c15.633,19.43,38.172,33.046,63.138,35.718c0.771,0.082,0.765-1.125,0-1.207c-44.42-4.754-77.644-43.208-84.08-86.052
				c-3.708-24.683,0.382-50.353,10.215-73.198c8.758-20.348,22.592-39.706,42.555-50.244c2.839-1.498,5.831-2.78,8.92-3.84
				c0.034-0.463,0.067-0.926,0.108-1.386C256.389,854.148,234.711,904.918,232.719,944.698z"/>
			<path style="fill:#F7C598;" d="M326.765,776.529c34.629-41.015,91.048-56.215,142.448-42.918
				c0.752,0.195,1.073-0.969,0.321-1.164c-50.222-12.992-105.613,0.907-140.717,39.896c-15.638,17.369-27.128,39.097-31.109,62.238
				c-0.351,2.041-0.623,4.122-0.813,6.224c0.412-0.136,0.83-0.26,1.246-0.388c0.15-1.587,0.346-3.154,0.596-4.686
				C302.276,813.967,312.596,793.31,326.765,776.529z"/>
			<path style="fill:#F7C598;" d="M350.395,849.958c9.441,7.996,14.622,20.325,7.81,31.748
				c-6.111,10.246-18.231,15.413-29.816,12.862c-23.989-5.282-32.011-30.897-30.362-52.787c-0.415,0.133-0.829,0.269-1.241,0.411
				c-1.51,20.712,5.135,43.174,25.885,51.802c8.858,3.683,18.729,3.274,26.92-1.892c8.033-5.066,14.04-14.236,12.976-24.002
				c-2.444-22.42-30.691-31.859-49.808-30.435c-5.115,0.381-9.985,1.328-14.618,2.753c-0.043,0.453-0.079,0.908-0.113,1.364
				C315.577,836.154,336.076,837.831,350.395,849.958z"/>
			<path style="fill:#F7C598;" d="M296.787,842.192c0.412-0.141,0.826-0.277,1.241-0.411c0.034-0.456,0.071-0.911,0.113-1.364
				c-0.416,0.128-0.834,0.252-1.246,0.388C296.853,841.266,296.82,841.729,296.787,842.192z"/>
		</g>
	</g>
	<g>
		<g>
			<polygon style="fill:#F7C598;" points="2055.999,376.2 2048.787,351.513 2001.207,392.215 2072.871,401.46 2084.033,374.113 			
				"/>
		</g>
		<g>
			<polygon style="fill:#F9EADF;" points="2072.372,358.881 2001.207,392.215 2163.605,375.114 			"/>
		</g>
		<g>
			<polygon style="fill:#F9EADF;" points="2001.207,392.215 2048.787,351.513 2050.184,310.415 			"/>
		</g>
	</g>
	<g>
		<g>
			<path style="fill:#F7C598;" d="M2183.173,441.01c-0.457,0.629,0.59,1.232,1.042,0.609c16.087-22.158,42.53-31.435,69.094-33.377
				c0.088-0.416,0.184-0.83,0.283-1.245C2226.412,408.896,2199.592,418.395,2183.173,441.01z"/>
			<path style="fill:#F7C598;" d="M2256.255,321.915c-10.694-11.702-24.56-20.519-39.666-25.309
				c-36.078-11.44-76.461,2.986-98.404,33.513c-0.454,0.632,0.592,1.235,1.042,0.609c23.804-33.116,68.836-46.114,106.262-29.459
				c17.126,7.621,31.928,20.607,41.158,36.975c5.487,9.731,8.438,20.294,4.87,31.23c-2.975,9.12-8.894,16.909-13.317,25.327
				c-2.062,3.924-3.609,8.023-4.609,12.196c0.347-0.024,0.695-0.044,1.042-0.066c4.068-14.905,16.415-26.439,19.26-41.861
				C2276.834,349.126,2266.552,333.183,2256.255,321.915z"/>
			<path style="fill:#F7C598;" d="M2275.735,408.233c17.748,1.223,43.24,4.246,48.911,24.673
				c6.836,24.629-26.626,30.416-43.377,24.512c-18.419-6.492-29.805-25.303-27.754-44.646c0.167-1.573,0.442-3.101,0.798-4.596
				c-0.335,0.022-0.67,0.042-1.005,0.066c-2.425,11.413-0.709,23.302,6.065,33.636c9.053,13.811,26.025,21.038,42.294,18.888
				c14.927-1.973,29.37-13.009,23.735-29.492c-5.901-17.26-25.358-21.586-41.39-23.475c-9.499-1.119-19.454-1.491-29.379-0.869
				c-0.113,0.413-0.221,0.827-0.321,1.245C2261.523,407.699,2268.732,407.751,2275.735,408.233z"/>
			<path style="fill:#F7C598;" d="M2253.308,408.242c0.335-0.025,0.669-0.044,1.005-0.066c0.099-0.418,0.208-0.832,0.321-1.245
				c-0.347,0.022-0.695,0.042-1.042,0.066C2253.492,407.412,2253.397,407.826,2253.308,408.242z"/>
		</g>
	</g>
	<g>
		<path style="fill:#F4CAB5;" d="M1204.308,951.411c6.978-5.118,21.136-12.385,26.388-23.114
			c6.336-12.942-6.107-14.855-12.025-16.786c-5.917-1.931-16.35,9.975-16.35,9.975s-2.242,16.792-9.703,27.095
			C1185.157,958.885,1197.33,956.529,1204.308,951.411z"/>
	</g>
</g>
</svg>
